999
DXF created by Inkscape
  0
SECTION
  2
HEADER
  9
$ACADVER
  1
AC1014
  9
$HANDSEED
  5
FFFF
  9
$MEASUREMENT
 70
     1
  0
ENDSEC
  0
SECTION
  2
TABLES
  0
TABLE
  2
VPORT
  5
8
330
0
100
AcDbSymbolTable
 70
     4
  0
VPORT
  5
2E
330
8
100
AcDbSymbolTableRecord
100
AcDbViewportTableRecord
  2
*ACTIVE
 70
     0
 10
0.0
 20
0.0
 11
1.0
 21
1.0
 12
210.0
 22
148.5
 13
0.0
 23
0.0
 14
10.0
 24
10.0
 15
10.0
 25
10.0
 16
0.0
 26
0.0
 36
1.0
 17
0.0
 27
0.0
 37
0.0
 40
341.0
 41
1.24
 42
50.0
 43
0.0
 44
0.0
 50
0.0
 51
0.0
 71
     0
 72
   100
 73
     1
 74
     3
 75
     0
 76
     0
 77
     0
 78
     0
  0
ENDTAB
  0
TABLE
  2
LTYPE
  5
5
330
0
100
AcDbSymbolTable
 70
     1
  0
LTYPE
  5
14
330
5
100
AcDbSymbolTableRecord
100
AcDbLinetypeTableRecord
  2
BYBLOCK
 70
     0
  3

 72
    65
 73
     0
 40
0.0
  0
LTYPE
  5
15
330
5
100
AcDbSymbolTableRecord
100
AcDbLinetypeTableRecord
  2
BYLAYER
 70
     0
  3

 72
    65
 73
     0
 40
0.0
  0
LTYPE
  5
16
330
5
100
AcDbSymbolTableRecord
100
AcDbLinetypeTableRecord
  2
CONTINUOUS
 70
     0
  3
Solid line
 72
    65
 73
     0
 40
0.0
  0
ENDTAB
  0
TABLE
  2
LAYER
  5
2
100
AcDbSymbolTable
 70
2
  0
LAYER
  5
50
100
AcDbSymbolTableRecord
100
AcDbLayerTableRecord
  2
0
 70
0
  6
CONTINUOUS
  0
LAYER
  5
51
100
AcDbSymbolTableRecord
100
AcDbLayerTableRecord
  2
Layer_1
 70
0
  6
CONTINUOUS
  0
ENDTAB
  0
TABLE
  2
STYLE
  5
3
330
0
100
AcDbSymbolTable
 70
     1
  0
STYLE
  5
11
330
3
100
AcDbSymbolTableRecord
100
AcDbTextStyleTableRecord
  2
STANDARD
 70
     0
 40
0.0
 41
1.0
 50
0.0
 71
     0
 42
2.5
  3
txt
  4

  0
ENDTAB
  0
TABLE
  2
VIEW
  5
6
330
0
100
AcDbSymbolTable
 70
     0
  0
ENDTAB
  0
TABLE
  2
UCS
  5
7
330
0
100
AcDbSymbolTable
 70
     0
  0
ENDTAB
  0
TABLE
  2
APPID
  5
9
330
0
100
AcDbSymbolTable
 70
     2
  0
APPID
  5
12
330
9
100
AcDbSymbolTableRecord
100
AcDbRegAppTableRecord
  2
ACAD
 70
     0
  0
ENDTAB
  0
TABLE
  2
DIMSTYLE
  5
A
330
0
100
AcDbSymbolTable
 70
     1
  0
DIMSTYLE
105
27
330
A
100
AcDbSymbolTableRecord
100
AcDbDimStyleTableRecord
  2
ISO-25
 70
     0
  3

  4

  5

  6

  7

 40
1.0
 41
2.5
 42
0.625
 43
3.75
 44
1.25
 45
0.0
 46
0.0
 47
0.0
 48
0.0
140
2.5
141
2.5
142
0.0
143
0.03937007874016
144
1.0
145
0.0
146
1.0
147
0.625
 71
     0
 72
     0
 73
     0
 74
     0
 75
     0
 76
     0
 77
     1
 78
     8
170
     0
171
     3
172
     1
173
     0
174
     0
175
     0
176
     0
177
     0
178
     0
270
     2
271
     2
272
     2
273
     2
274
     3
340
11
275
     0
280
     0
281
     0
282
     0
283
     0
284
     8
285
     0
286
     0
287
     3
288
     0
  0
ENDTAB
  0
TABLE
  2
BLOCK_RECORD
  5
1
330
0
100
AcDbSymbolTable
 70
     1
  0
BLOCK_RECORD
  5
1F
330
1
100
AcDbSymbolTableRecord
100
AcDbBlockTableRecord
  2
*MODEL_SPACE
  0
BLOCK_RECORD
  5
1B
330
1
100
AcDbSymbolTableRecord
100
AcDbBlockTableRecord
  2
*PAPER_SPACE
  0
ENDTAB
  0
ENDSEC
  0
SECTION
  2
BLOCKS
  0
BLOCK
  5
20
330
1F
100
AcDbEntity
  8
0
100
AcDbBlockBegin
  2
*MODEL_SPACE
 70
     0
 10
0.0
 20
0.0
 30
0.0
  3
*MODEL_SPACE
  1

  0
ENDBLK
  5
21
330
1F
100
AcDbEntity
  8
0
100
AcDbBlockEnd
  0
BLOCK
  5
1C
330
1B
100
AcDbEntity
 67
     1
  8
0
100
AcDbBlockBegin
  2
*PAPER_SPACE
  1

  0
ENDBLK
  5
1D
330
1B
100
AcDbEntity
 67
     1
  8
0
100
AcDbBlockEnd
  0
ENDSEC
  0
SECTION
  2
ENTITIES
  0
LWPOLYLINE
  5
100
100
AcDbEntity
  8
Layer_1
 62
1
100
AcDbPolyline
 90
2
 70
0
 10
664.265945
 20
544.038835
 30
0.0
 10
664.265945
 20
145.572534
 30
0.0
  0
LWPOLYLINE
  5
101
100
AcDbEntity
  8
Layer_1
 62
7
100
AcDbPolyline
 90
6
 70
0
 10
190.948333
 20
499.330266
 30
0.0
 10
577.313504
 20
499.330266
 30
0.0
 10
673.266096
 20
140.737542
 30
0.0
 10
673.266096
 20
52.112489
 30
0.0
 10
190.948333
 20
52.112489
 30
0.0
 10
190.948333
 20
499.330266
 30
0.0
  0
LWPOLYLINE
  5
102
100
AcDbEntity
  8
Layer_1
 62
7
100
AcDbPolyline
 90
2
 70
0
 10
200.036190
 20
490.633120
 30
0.0
 10
571.267909
 20
490.633120
 30
0.0
  0
LWPOLYLINE
  5
103
100
AcDbEntity
  8
Layer_1
 62
7
100
AcDbPolyline
 90
2
 70
0
 10
571.648937
 20
490.814078
 30
0.0
 10
664.455711
 20
144.395836
 30
0.0
  0
LWPOLYLINE
  5
104
100
AcDbEntity
  8
Layer_1
 62
7
100
AcDbPolyline
 90
2
 70
0
 10
664.265945
 20
145.290314
 30
0.0
 10
664.265945
 20
52.156981
 30
0.0
  0
LWPOLYLINE
  5
105
100
AcDbEntity
  8
Layer_1
 62
1
100
AcDbPolyline
 90
2
 70
0
 10
666.088480
 20
145.189533
 30
0.0
 10
705.931879
 20
145.189533
 30
0.0
  0
LWPOLYLINE
  5
106
100
AcDbEntity
  8
Layer_1
 62
1
100
AcDbPolyline
 90
2
 70
0
 10
706.813457
 20
490.633120
 30
0.0
 10
580.287392
 20
490.633120
 30
0.0
  0
SPLINE
  5
107
100
AcDbEntity
  8
Layer_1
 62
1
100
AcDbSpline
 70
0
 71
3
 72
10
 73
6
 74
4
 40
0.000000
 40
0.000000
 40
0.000000
 40
0.000000
 40
68.284909
 40
93.442507
 40
97.036450
 40
97.036450
 40
97.036450
 40
97.036450
 10
128.890014
 20
52.135656
 30
0.0
 10
106.128378
 20
52.135656
 30
0.0
 10
74.980875
 20
52.135656
 30
0.0
 10
42.635392
 20
52.135656
 30
0.0
 10
33.051545
 20
52.135656
 30
0.0
 10
31.853564
 20
52.135656
 30
0.0
 11
128.890014
 21
52.135656
 31
0.0
 11
60.605105
 21
52.135656
 31
0.0
 11
35.447507
 21
52.135656
 31
0.0
 11
31.853564
 21
52.135656
 31
0.0
  0
LWPOLYLINE
  5
108
100
AcDbEntity
  8
Layer_1
 62
7
100
AcDbPolyline
 90
2
 70
0
 10
199.947959
 20
490.633125
 30
0.0
 10
199.947959
 20
52.146567
 30
0.0
  0
SPLINE
  5
109
100
AcDbEntity
  8
Layer_1
 62
1
100
AcDbSpline
 70
0
 71
3
 72
10
 73
6
 74
4
 40
0.000000
 40
0.000000
 40
0.000000
 40
0.000000
 40
314.439994
 40
430.286308
 40
446.835781
 40
446.835781
 40
446.835781
 40
446.835781
 10
106.034119
 20
51.925121
 30
0.0
 10
106.034119
 20
156.738453
 30
0.0
 10
106.034119
 20
300.167222
 30
0.0
 10
106.034119
 20
449.112482
 30
0.0
 10
106.034119
 20
493.244411
 30
0.0
 10
106.034119
 20
498.760902
 30
0.0
 11
106.034119
 21
51.925121
 31
0.0
 11
106.034119
 21
366.365115
 31
0.0
 11
106.034119
 21
482.211429
 31
0.0
 11
106.034119
 21
498.760902
 31
0.0
  0
SPLINE
  5
10a
100
AcDbEntity
  8
Layer_1
 62
1
100
AcDbSpline
 70
0
 71
3
 72
10
 73
6
 74
4
 40
0.000000
 40
0.000000
 40
0.000000
 40
0.000000
 40
63.767543
 40
87.260848
 40
90.617035
 40
90.617035
 40
90.617035
 40
90.617035
 10
124.789599
 20
499.541394
 30
0.0
 10
103.533752
 20
499.541394
 30
0.0
 10
74.446802
 20
499.541394
 30
0.0
 10
44.241124
 20
499.541394
 30
0.0
 10
35.291293
 20
499.541394
 30
0.0
 10
34.172565
 20
499.541394
 30
0.0
 11
124.789599
 21
499.541394
 31
0.0
 11
61.022056
 21
499.541394
 31
0.0
 11
37.528751
 21
499.541394
 31
0.0
 11
34.172565
 21
499.541394
 31
0.0
  0
SPLINE
  5
10b
100
AcDbEntity
  8
Layer_1
 62
1
100
AcDbSpline
 70
0
 71
3
 72
10
 73
6
 74
4
 40
0.000000
 40
0.000000
 40
0.000000
 40
0.000000
 40
60.054671
 40
82.180075
 40
85.340848
 40
85.340848
 40
85.340848
 40
85.340848
 10
191.387341
 20
499.090772
 30
0.0
 10
191.387341
 20
519.108996
 30
0.0
 10
191.387341
 20
546.502354
 30
0.0
 10
191.387341
 20
574.949303
 30
0.0
 10
191.387341
 20
583.378029
 30
0.0
 10
191.387341
 20
584.431620
 30
0.0
 11
191.387341
 21
499.090772
 31
0.0
 11
191.387341
 21
559.145443
 31
0.0
 11
191.387341
 21
581.270848
 31
0.0
 11
191.387341
 21
584.431620
 31
0.0
  0
SPLINE
  5
10c
100
AcDbEntity
  8
Layer_1
 62
1
100
AcDbSpline
 70
0
 71
3
 72
10
 73
6
 74
4
 40
0.000000
 40
0.000000
 40
0.000000
 40
0.000000
 40
67.448394
 40
92.297803
 40
95.847718
 40
95.847718
 40
95.847718
 40
95.847718
 10
718.965353
 20
52.529430
 30
0.0
 10
741.448151
 20
52.529430
 30
0.0
 10
772.214085
 20
52.529430
 30
0.0
 10
804.163325
 20
52.529430
 30
0.0
 10
813.629766
 20
52.529430
 30
0.0
 10
814.813071
 20
52.529430
 30
0.0
 11
718.965353
 21
52.529430
 31
0.0
 11
786.413747
 21
52.529430
 31
0.0
 11
811.263156
 21
52.529430
 31
0.0
 11
814.813071
 21
52.529430
 31
0.0
  0
SPLINE
  5
10d
100
AcDbEntity
  8
Layer_1
 62
1
100
AcDbSpline
 70
0
 71
3
 72
10
 73
6
 74
4
 40
0.000000
 40
0.000000
 40
0.000000
 40
0.000000
 40
314.439996
 40
430.286311
 40
446.835784
 40
446.835784
 40
446.835784
 40
446.835784
 10
740.632512
 20
52.318892
 30
0.0
 10
740.632512
 20
157.132224
 30
0.0
 10
740.632512
 20
300.560994
 30
0.0
 10
740.632512
 20
449.506255
 30
0.0
 10
740.632512
 20
493.638185
 30
0.0
 10
740.632512
 20
499.154676
 30
0.0
 11
740.632512
 21
52.318892
 31
0.0
 11
740.632512
 21
366.758888
 31
0.0
 11
740.632512
 21
482.605202
 31
0.0
 11
740.632512
 21
499.154676
 31
0.0
  0
SPLINE
  5
10e
100
AcDbEntity
  8
Layer_1
 62
1
100
AcDbSpline
 70
0
 71
3
 72
10
 73
6
 74
4
 40
0.000000
 40
0.000000
 40
0.000000
 40
0.000000
 40
64.893117
 40
88.801107
 40
92.216534
 40
92.216534
 40
92.216534
 40
92.216534
 10
720.279944
 20
499.650063
 30
0.0
 10
741.910983
 20
499.650063
 30
0.0
 10
771.511352
 20
499.650063
 30
0.0
 10
802.250197
 20
499.650063
 30
0.0
 10
811.358003
 20
499.650063
 30
0.0
 10
812.496478
 20
499.650063
 30
0.0
 11
720.279944
 21
499.650063
 31
0.0
 11
785.173061
 21
499.650063
 31
0.0
 11
809.081051
 21
499.650063
 31
0.0
 11
812.496478
 21
499.650063
 31
0.0
  0
SPLINE
  5
10f
100
AcDbEntity
  8
Layer_1
 62
1
100
AcDbSpline
 70
0
 71
3
 72
10
 73
6
 74
4
 40
0.000000
 40
0.000000
 40
0.000000
 40
0.000000
 40
28.817228
 40
39.434101
 40
40.950797
 40
40.950797
 40
40.950797
 40
40.950797
 10
672.733458
 20
49.205868
 30
0.0
 10
672.733458
 20
39.600125
 30
0.0
 10
672.733458
 20
26.455425
 30
0.0
 10
672.733458
 20
12.805159
 30
0.0
 10
672.733458
 20
8.760636
 30
0.0
 10
672.733458
 20
8.255071
 30
0.0
 11
672.733458
 21
49.205868
 31
0.0
 11
672.733458
 21
20.388640
 31
0.0
 11
672.733458
 21
9.771767
 31
0.0
 11
672.733458
 21
8.255071
 31
0.0
  0
SPLINE
  5
110
100
AcDbEntity
  8
Layer_1
 62
1
100
AcDbSpline
 70
0
 71
3
 72
10
 73
6
 74
4
 40
0.000000
 40
0.000000
 40
0.000000
 40
0.000000
 40
338.906680
 40
463.767036
 40
481.604230
 40
481.604230
 40
481.604230
 40
481.604230
 10
190.986763
 20
36.089675
 30
0.0
 10
303.955656
 20
36.089675
 30
0.0
 10
458.544668
 20
36.089675
 30
0.0
 10
619.079411
 20
36.089675
 30
0.0
 10
666.645261
 20
36.089675
 30
0.0
 10
672.590992
 20
36.089675
 30
0.0
 11
190.986763
 21
36.089675
 31
0.0
 11
529.893443
 21
36.089675
 31
0.0
 11
654.753799
 21
36.089675
 31
0.0
 11
672.590992
 21
36.089675
 31
0.0
  0
SPLINE
  5
111
100
AcDbEntity
  8
Layer_1
 62
1
100
AcDbSpline
 70
0
 71
3
 72
10
 73
6
 74
4
 40
0.000000
 40
0.000000
 40
0.000000
 40
0.000000
 40
28.514679
 40
39.020087
 40
40.520860
 40
40.520860
 40
40.520860
 40
40.520860
 10
190.689165
 20
50.141211
 30
0.0
 10
190.689165
 20
40.636318
 30
0.0
 10
190.689165
 20
27.629623
 30
0.0
 10
190.689165
 20
14.122669
 30
0.0
 10
190.689165
 20
10.120609
 30
0.0
 10
190.689165
 20
9.620352
 30
0.0
 11
190.689165
 21
50.141211
 31
0.0
 11
190.689165
 21
21.626532
 31
0.0
 11
190.689165
 21
11.121124
 31
0.0
 11
190.689165
 21
9.620352
 31
0.0
  0
SPLINE
  5
112
100
AcDbEntity
  8
Layer_1
 62
1
100
AcDbSpline
 70
0
 71
3
 72
10
 73
6
 74
4
 40
0.000000
 40
0.000000
 40
0.000000
 40
0.000000
 40
272.036826
 40
372.260919
 40
386.578647
 40
386.578647
 40
386.578647
 40
386.578647
 10
191.247880
 20
559.321208
 30
0.0
 10
281.926822
 20
559.321208
 30
0.0
 10
406.013796
 20
559.321208
 30
0.0
 10
534.873345
 20
559.321208
 30
0.0
 10
573.053952
 20
559.321208
 30
0.0
 10
577.826528
 20
559.321208
 30
0.0
 11
191.247880
 21
559.321208
 31
0.0
 11
463.284706
 21
559.321208
 31
0.0
 11
563.508800
 21
559.321208
 31
0.0
 11
577.826528
 21
559.321208
 31
0.0
  0
SPLINE
  5
113
100
AcDbEntity
  8
Layer_1
 62
1
100
AcDbSpline
 70
0
 71
3
 72
10
 73
6
 74
4
 40
0.000000
 40
0.000000
 40
0.000000
 40
0.000000
 40
20.127143
 40
27.542406
 40
28.601729
 40
28.601729
 40
28.601729
 40
28.601729
 10
577.701164
 20
549.517257
 30
0.0
 10
577.701164
 20
556.226304
 30
0.0
 10
577.701164
 20
565.407106
 30
0.0
 10
577.701164
 20
574.941016
 30
0.0
 10
577.701164
 20
577.765878
 30
0.0
 10
577.701164
 20
578.118986
 30
0.0
 11
577.701164
 21
549.517257
 31
0.0
 11
577.701164
 21
569.644400
 31
0.0
 11
577.701164
 21
577.059663
 31
0.0
 11
577.701164
 21
578.118986
 31
0.0
  0
SPLINE
  5
114
100
AcDbEntity
  8
Layer_1
 62
1
100
AcDbSpline
 70
0
 71
3
 72
10
 73
6
 74
4
 40
0.000000
 40
0.000000
 40
0.000000
 40
0.000000
 40
65.277072
 40
89.326519
 40
92.762155
 40
92.762155
 40
92.762155
 40
92.762155
 10
717.402745
 20
139.556349
 30
0.0
 10
739.161769
 20
139.556349
 30
0.0
 10
768.937275
 20
139.556349
 30
0.0
 10
799.857994
 20
139.556349
 30
0.0
 10
809.019688
 20
139.556349
 30
0.0
 10
810.164900
 20
139.556349
 30
0.0
 11
717.402745
 21
139.556349
 31
0.0
 11
782.679817
 21
139.556349
 31
0.0
 11
806.729264
 21
139.556349
 31
0.0
 11
810.164900
 21
139.556349
 31
0.0
  0
LWPOLYLINE
  5
115
100
AcDbEntity
  8
Layer_1
 62
1
100
AcDbPolyline
 90
2
 70
0
 10
189.312683
 20
490.633120
 30
0.0
 10
140.085703
 20
490.633120
 30
0.0
  0
LWPOLYLINE
  5
116
100
AcDbEntity
  8
Layer_1
 62
1
100
AcDbPolyline
 90
2
 70
0
 10
188.778044
 20
499.188207
 30
0.0
 10
139.551063
 20
499.188207
 30
0.0
  0
LWPOLYLINE
  5
117
100
AcDbEntity
  8
Layer_1
 62
7
100
AcDbPolyline
 90
5
 70
0
 10
577.375021
 20
499.209602
 30
0.0
 10
571.158750
 20
497.543957
 30
0.0
 10
667.034527
 20
139.730694
 30
0.0
 10
673.250797
 20
141.396338
 30
0.0
 10
577.375021
 20
499.209602
 30
0.0
  0
LWPOLYLINE
  5
118
100
AcDbEntity
  8
Layer_1
 62
7
100
AcDbPolyline
 90
5
 70
0
 10
652.141435
 20
193.131681
 30
0.0
 10
638.197759
 20
189.395484
 30
0.0
 10
651.251442
 20
140.678479
 30
0.0
 10
665.195118
 20
144.414675
 30
0.0
 10
652.141435
 20
193.131681
 30
0.0
  0
LWPOLYLINE
  5
119
100
AcDbEntity
  8
Layer_1
 62
7
100
AcDbPolyline
 90
2
 70
0
 10
578.076712
 20
497.473663
 30
0.0
 10
571.419025
 20
495.689741
 30
0.0
  0
LWPOLYLINE
  5
11a
100
AcDbEntity
  8
Layer_1
 62
7
100
AcDbPolyline
 90
2
 70
0
 10
578.780124
 20
494.848491
 30
0.0
 10
572.122438
 20
493.064570
 30
0.0
  0
LWPOLYLINE
  5
11b
100
AcDbEntity
  8
Layer_1
 62
7
100
AcDbPolyline
 90
2
 70
0
 10
659.863533
 20
192.241083
 30
0.0
 10
653.205847
 20
190.457161
 30
0.0
  0
LWPOLYLINE
  5
11c
100
AcDbEntity
  8
Layer_1
 62
7
100
AcDbPolyline
 90
2
 70
0
 10
660.566946
 20
189.615912
 30
0.0
 10
653.909259
 20
187.831990
 30
0.0
  0
LWPOLYLINE
  5
11d
100
AcDbEntity
  8
Layer_1
 62
7
100
AcDbPolyline
 90
5
 70
0
 10
664.507753
 20
139.556349
 30
0.0
 10
673.225530
 20
139.556349
 30
0.0
 10
673.225530
 20
52.838576
 30
0.0
 10
664.507753
 20
52.838576
 30
0.0
 10
664.507753
 20
139.556349
 30
0.0
  0
LWPOLYLINE
  5
11e
100
AcDbEntity
  8
Layer_1
 62
7
100
AcDbPolyline
 90
5
 70
0
 10
570.770323
 20
490.524365
 30
0.0
 10
190.576547
 20
490.524365
 30
0.0
 10
190.576547
 20
499.242144
 30
0.0
 10
570.770323
 20
499.242144
 30
0.0
 10
570.770323
 20
490.524365
 30
0.0
  0
LWPOLYLINE
  5
11f
100
AcDbEntity
  8
Layer_1
 62
7
100
AcDbPolyline
 90
5
 70
0
 10
191.100160
 20
490.176721
 30
0.0
 10
199.817937
 20
490.176721
 30
0.0
 10
199.817937
 20
51.689917
 30
0.0
 10
191.100160
 20
51.689917
 30
0.0
 10
191.100160
 20
490.176721
 30
0.0
  0
LWPOLYLINE
  5
120
100
AcDbEntity
  8
Layer_1
 62
7
100
AcDbPolyline
 90
5
 70
0
 10
10.079366
 20
585.449849
 30
0.0
 10
25.400001
 20
585.449849
 30
0.0
 10
25.400001
 20
573.354611
 30
0.0
 10
10.079366
 20
573.354611
 30
0.0
 10
10.079366
 20
585.449849
 30
0.0
  0
LWPOLYLINE
  5
121
100
AcDbEntity
  8
Layer_1
 62
7
100
AcDbPolyline
 90
5
 70
0
 10
10.079366
 20
570.518939
 30
0.0
 10
25.400001
 20
570.518939
 30
0.0
 10
25.400001
 20
558.423701
 30
0.0
 10
10.079366
 20
558.423701
 30
0.0
 10
10.079366
 20
570.518939
 30
0.0
  0
LWPOLYLINE
  5
122
100
AcDbEntity
  8
Layer_1
 62
7
100
AcDbPolyline
 90
5
 70
0
 10
10.079366
 20
555.588057
 30
0.0
 10
25.400001
 20
555.588057
 30
0.0
 10
25.400001
 20
543.492819
 30
0.0
 10
10.079366
 20
543.492819
 30
0.0
 10
10.079366
 20
555.588057
 30
0.0
  0
SPLINE
  5
123
100
AcDbEntity
  8
Layer_1
 62
1
100
AcDbSpline
 70
0
 71
3
 72
10
 73
6
 74
4
 40
0.000000
 40
0.000000
 40
0.000000
 40
0.000000
 40
59.044799
 40
80.798146
 40
83.905767
 40
83.905767
 40
83.905767
 40
83.905767
 10
803.557428
 20
140.035427
 30
0.0
 10
803.557428
 20
120.353827
 30
0.0
 10
803.557428
 20
93.421112
 30
0.0
 10
803.557428
 20
65.452522
 30
0.0
 10
803.557428
 20
57.165533
 30
0.0
 10
803.557428
 20
56.129659
 30
0.0
 11
803.557428
 21
140.035427
 31
0.0
 11
803.557428
 21
80.990628
 31
0.0
 11
803.557428
 21
59.237280
 31
0.0
 11
803.557428
 21
56.129659
 31
0.0
  0
SPLINE
  5
124
100
AcDbEntity
  8
Layer_1
 62
1
100
AcDbSpline
 70
0
 71
3
 72
10
 73
6
 74
4
 40
0.000000
 40
0.000000
 40
0.000000
 40
0.000000
 40
267.217185
 40
365.665622
 40
379.729684
 40
379.729684
 40
379.729684
 40
379.729684
 10
191.384837
 20
531.523722
 30
0.0
 10
280.457232
 20
531.523722
 30
0.0
 10
402.345773
 20
531.523722
 30
0.0
 10
528.922334
 20
531.523722
 30
0.0
 10
566.426500
 20
531.523722
 30
0.0
 10
571.114521
 20
531.523722
 30
0.0
 11
191.384837
 21
531.523722
 31
0.0
 11
458.602022
 21
531.523722
 31
0.0
 11
557.050459
 21
531.523722
 31
0.0
 11
571.114521
 21
531.523722
 31
0.0
  0
SPLINE
  5
125
100
AcDbEntity
  8
Layer_1
 62
1
100
AcDbSpline
 70
0
 71
3
 72
10
 73
6
 74
4
 40
0.000000
 40
0.000000
 40
0.000000
 40
0.000000
 40
20.127141
 40
27.542403
 40
28.601726
 40
28.601726
 40
28.601726
 40
28.601726
 10
571.267909
 20
521.921359
 30
0.0
 10
571.267909
 20
528.630406
 30
0.0
 10
571.267909
 20
537.811207
 30
0.0
 10
571.267909
 20
547.345116
 30
0.0
 10
571.267909
 20
550.169978
 30
0.0
 10
571.267909
 20
550.523085
 30
0.0
 11
571.267909
 21
521.921359
 31
0.0
 11
571.267909
 21
542.048500
 31
0.0
 11
571.267909
 21
549.463762
 31
0.0
 11
571.267909
 21
550.523085
 31
0.0
  0
SPLINE
  5
126
100
AcDbEntity
  8
Layer_1
 62
1
100
AcDbSpline
 70
0
 71
3
 72
10
 73
6
 74
4
 40
0.000000
 40
0.000000
 40
0.000000
 40
0.000000
 40
63.767543
 40
87.260848
 40
90.617034
 40
90.617034
 40
90.617034
 40
90.617034
 10
180.775184
 20
490.633120
 30
0.0
 10
159.519336
 20
490.633120
 30
0.0
 10
130.432387
 20
490.633120
 30
0.0
 10
100.226709
 20
490.633120
 30
0.0
 10
91.276878
 20
490.633120
 30
0.0
 10
90.158149
 20
490.633120
 30
0.0
 11
180.775184
 21
490.633120
 31
0.0
 11
117.007641
 21
490.633120
 31
0.0
 11
93.514336
 21
490.633120
 31
0.0
 11
90.158149
 21
490.633120
 31
0.0
  0
SPLINE
  5
127
100
AcDbEntity
  8
Layer_1
 62
1
100
AcDbSpline
 70
0
 71
3
 72
10
 73
6
 74
4
 40
0.000000
 40
0.000000
 40
0.000000
 40
0.000000
 40
308.200226
 40
421.747678
 40
437.968743
 40
437.968743
 40
437.968743
 40
437.968743
 10
125.410826
 20
52.135656
 30
0.0
 10
125.410826
 20
154.869065
 30
0.0
 10
125.410826
 20
295.451624
 30
0.0
 10
125.410826
 20
441.441205
 30
0.0
 10
125.410826
 20
484.697377
 30
0.0
 10
125.410826
 20
490.104399
 30
0.0
 11
125.410826
 21
52.135656
 31
0.0
 11
125.410826
 21
360.335883
 31
0.0
 11
125.410826
 21
473.883334
 31
0.0
 11
125.410826
 21
490.104399
 31
0.0
  0
LWPOLYLINE
  5
128
100
AcDbEntity
  8
Layer_1
 62
7
100
AcDbPolyline
 90
5
 70
0
 10
10.079366
 20
540.657138
 30
0.0
 10
25.400001
 20
540.657138
 30
0.0
 10
25.400001
 20
528.561900
 30
0.0
 10
10.079366
 20
528.561900
 30
0.0
 10
10.079366
 20
540.657138
 30
0.0
  0
ENDSEC
  0
SECTION
  2
OBJECTS
  0
DICTIONARY
  5
C
330
0
100
AcDbDictionary
  3
ACAD_GROUP
350
D
  3
ACAD_MLINESTYLE
350
17
  0
DICTIONARY
  5
D
330
C
100
AcDbDictionary
  0
DICTIONARY
  5
1A
330
C
100
AcDbDictionary
  0
DICTIONARY
  5
17
330
C
100
AcDbDictionary
  3
STANDARD
350
18
  0
DICTIONARY
  5
19
330
C
100
AcDbDictionary
  0
ENDSEC
  0
EOF
