999
DXF created by Inkscape
  0
SECTION
  2
HEADER
  9
$ACADVER
  1
AC1014
  9
$HANDSEED
  5
FFFF
  9
$MEASUREMENT
 70
     1
  0
ENDSEC
  0
SECTION
  2
TABLES
  0
TABLE
  2
VPORT
  5
8
330
0
100
AcDbSymbolTable
 70
     4
  0
VPORT
  5
2E
330
8
100
AcDbSymbolTableRecord
100
AcDbViewportTableRecord
  2
*ACTIVE
 70
     0
 10
0.0
 20
0.0
 11
1.0
 21
1.0
 12
210.0
 22
148.5
 13
0.0
 23
0.0
 14
10.0
 24
10.0
 15
10.0
 25
10.0
 16
0.0
 26
0.0
 36
1.0
 17
0.0
 27
0.0
 37
0.0
 40
341.0
 41
1.24
 42
50.0
 43
0.0
 44
0.0
 50
0.0
 51
0.0
 71
     0
 72
   100
 73
     1
 74
     3
 75
     0
 76
     0
 77
     0
 78
     0
  0
ENDTAB
  0
TABLE
  2
LTYPE
  5
5
330
0
100
AcDbSymbolTable
 70
     1
  0
LTYPE
  5
14
330
5
100
AcDbSymbolTableRecord
100
AcDbLinetypeTableRecord
  2
BYBLOCK
 70
     0
  3

 72
    65
 73
     0
 40
0.0
  0
LTYPE
  5
15
330
5
100
AcDbSymbolTableRecord
100
AcDbLinetypeTableRecord
  2
BYLAYER
 70
     0
  3

 72
    65
 73
     0
 40
0.0
  0
LTYPE
  5
16
330
5
100
AcDbSymbolTableRecord
100
AcDbLinetypeTableRecord
  2
CONTINUOUS
 70
     0
  3
Solid line
 72
    65
 73
     0
 40
0.0
  0
ENDTAB
  0
TABLE
  2
LAYER
  5
2
100
AcDbSymbolTable
 70
2
  0
LAYER
  5
50
100
AcDbSymbolTableRecord
100
AcDbLayerTableRecord
  2
0
 70
0
  6
CONTINUOUS
  0
LAYER
  5
51
100
AcDbSymbolTableRecord
100
AcDbLayerTableRecord
  2
Layer_1
 70
0
  6
CONTINUOUS
  0
ENDTAB
  0
TABLE
  2
STYLE
  5
3
330
0
100
AcDbSymbolTable
 70
     1
  0
STYLE
  5
11
330
3
100
AcDbSymbolTableRecord
100
AcDbTextStyleTableRecord
  2
STANDARD
 70
     0
 40
0.0
 41
1.0
 50
0.0
 71
     0
 42
2.5
  3
txt
  4

  0
ENDTAB
  0
TABLE
  2
VIEW
  5
6
330
0
100
AcDbSymbolTable
 70
     0
  0
ENDTAB
  0
TABLE
  2
UCS
  5
7
330
0
100
AcDbSymbolTable
 70
     0
  0
ENDTAB
  0
TABLE
  2
APPID
  5
9
330
0
100
AcDbSymbolTable
 70
     2
  0
APPID
  5
12
330
9
100
AcDbSymbolTableRecord
100
AcDbRegAppTableRecord
  2
ACAD
 70
     0
  0
ENDTAB
  0
TABLE
  2
DIMSTYLE
  5
A
330
0
100
AcDbSymbolTable
 70
     1
  0
DIMSTYLE
105
27
330
A
100
AcDbSymbolTableRecord
100
AcDbDimStyleTableRecord
  2
ISO-25
 70
     0
  3

  4

  5

  6

  7

 40
1.0
 41
2.5
 42
0.625
 43
3.75
 44
1.25
 45
0.0
 46
0.0
 47
0.0
 48
0.0
140
2.5
141
2.5
142
0.0
143
0.03937007874016
144
1.0
145
0.0
146
1.0
147
0.625
 71
     0
 72
     0
 73
     0
 74
     0
 75
     0
 76
     0
 77
     1
 78
     8
170
     0
171
     3
172
     1
173
     0
174
     0
175
     0
176
     0
177
     0
178
     0
270
     2
271
     2
272
     2
273
     2
274
     3
340
11
275
     0
280
     0
281
     0
282
     0
283
     0
284
     8
285
     0
286
     0
287
     3
288
     0
  0
ENDTAB
  0
TABLE
  2
BLOCK_RECORD
  5
1
330
0
100
AcDbSymbolTable
 70
     1
  0
BLOCK_RECORD
  5
1F
330
1
100
AcDbSymbolTableRecord
100
AcDbBlockTableRecord
  2
*MODEL_SPACE
  0
BLOCK_RECORD
  5
1B
330
1
100
AcDbSymbolTableRecord
100
AcDbBlockTableRecord
  2
*PAPER_SPACE
  0
ENDTAB
  0
ENDSEC
  0
SECTION
  2
BLOCKS
  0
BLOCK
  5
20
330
1F
100
AcDbEntity
  8
0
100
AcDbBlockBegin
  2
*MODEL_SPACE
 70
     0
 10
0.0
 20
0.0
 30
0.0
  3
*MODEL_SPACE
  1

  0
ENDBLK
  5
21
330
1F
100
AcDbEntity
  8
0
100
AcDbBlockEnd
  0
BLOCK
  5
1C
330
1B
100
AcDbEntity
 67
     1
  8
0
100
AcDbBlockBegin
  2
*PAPER_SPACE
  1

  0
ENDBLK
  5
1D
330
1B
100
AcDbEntity
 67
     1
  8
0
100
AcDbBlockEnd
  0
ENDSEC
  0
SECTION
  2
ENTITIES
  0
LWPOLYLINE
  5
100
100
AcDbEntity
  8
Layer_1
 62
7
100
AcDbPolyline
 90
5
 70
0
 10
32.771718
 20
450.152332
 30
0.0
 10
41.489495
 20
450.152332
 30
0.0
 10
41.489495
 20
11.665528
 30
0.0
 10
32.771718
 20
11.665528
 30
0.0
 10
32.771718
 20
450.152332
 30
0.0
  0
LWPOLYLINE
  5
101
100
AcDbEntity
  8
Layer_1
 62
7
100
AcDbPolyline
 90
5
 70
0
 10
88.530260
 20
450.152312
 30
0.0
 10
581.948036
 20
450.152312
 30
0.0
 10
581.948036
 20
11.665508
 30
0.0
 10
88.530260
 20
11.665508
 30
0.0
 10
88.530260
 20
450.152312
 30
0.0
  0
LWPOLYLINE
  5
102
100
AcDbEntity
  8
Layer_1
 62
7
100
AcDbPolyline
 90
5
 70
0
 10
582.233151
 20
496.648167
 30
0.0
 10
88.815375
 20
496.648167
 30
0.0
 10
88.815375
 20
505.365945
 30
0.0
 10
582.233151
 20
505.365945
 30
0.0
 10
582.233151
 20
496.648167
 30
0.0
  0
SPLINE
  5
103
100
AcDbEntity
  8
Layer_1
 62
1
100
AcDbSpline
 70
0
 71
3
 72
10
 73
6
 74
4
 40
0.000000
 40
0.000000
 40
0.000000
 40
0.000000
 40
27.508341
 40
37.642993
 40
39.090800
 40
39.090800
 40
39.090800
 40
39.090800
 10
80.326027
 20
506.024797
 30
0.0
 10
71.156580
 20
506.024797
 30
0.0
 10
58.608915
 20
506.024797
 30
0.0
 10
45.578648
 20
506.024797
 30
0.0
 10
41.717829
 20
506.024797
 30
0.0
 10
41.235226
 20
506.024797
 30
0.0
 11
80.326027
 21
506.024797
 31
0.0
 11
52.817686
 21
506.024797
 31
0.0
 11
42.683034
 21
506.024797
 31
0.0
 11
41.235226
 21
506.024797
 31
0.0
  0
SPLINE
  5
104
100
AcDbEntity
  8
Layer_1
 62
1
100
AcDbSpline
 70
0
 71
3
 72
10
 73
6
 74
4
 40
0.000000
 40
0.000000
 40
0.000000
 40
0.000000
 40
5.625426
 40
7.697951
 40
7.994026
 40
7.994026
 40
7.994026
 40
7.994026
 10
45.817053
 20
498.244085
 30
0.0
 10
45.817053
 20
500.119227
 30
0.0
 10
45.817053
 20
502.685211
 30
0.0
 10
45.817053
 20
505.349886
 30
0.0
 10
45.817053
 20
506.139420
 30
0.0
 10
45.817053
 20
506.238112
 30
0.0
 11
45.817053
 21
498.244085
 31
0.0
 11
45.817053
 21
503.869511
 31
0.0
 11
45.817053
 21
505.942036
 31
0.0
 11
45.817053
 21
506.238112
 31
0.0
  0
SPLINE
  5
105
100
AcDbEntity
  8
Layer_1
 62
1
100
AcDbSpline
 70
0
 71
3
 72
10
 73
6
 74
4
 40
0.000000
 40
0.000000
 40
0.000000
 40
0.000000
 40
28.375986
 40
38.830297
 40
40.323770
 40
40.323770
 40
40.323770
 40
40.323770
 10
81.217118
 20
498.265480
 30
0.0
 10
71.758456
 20
498.265480
 30
0.0
 10
58.815023
 20
498.265480
 30
0.0
 10
45.373767
 20
498.265480
 30
0.0
 10
41.391172
 20
498.265480
 30
0.0
 10
40.893348
 20
498.265480
 30
0.0
 11
81.217118
 21
498.265480
 31
0.0
 11
52.841131
 21
498.265480
 31
0.0
 11
42.386821
 21
498.265480
 31
0.0
 11
40.893348
 21
498.265480
 31
0.0
  0
SPLINE
  5
106
100
AcDbEntity
  8
Layer_1
 62
1
100
AcDbSpline
 70
0
 71
3
 72
10
 73
6
 74
4
 40
0.000000
 40
0.000000
 40
0.000000
 40
0.000000
 40
22.469358
 40
30.747542
 40
31.930140
 40
31.930140
 40
31.930140
 40
31.930140
 10
40.702932
 20
460.414800
 30
0.0
 10
40.702932
 20
467.904586
 30
0.0
 10
40.702932
 20
478.153766
 30
0.0
 10
40.702932
 20
488.797146
 30
0.0
 10
40.702932
 20
491.950740
 30
0.0
 10
40.702932
 20
492.344939
 30
0.0
 11
40.702932
 21
460.414800
 31
0.0
 11
40.702932
 21
482.884157
 31
0.0
 11
40.702932
 21
491.162342
 31
0.0
 11
40.702932
 21
492.344939
 31
0.0
  0
SPLINE
  5
107
100
AcDbEntity
  8
Layer_1
 62
1
100
AcDbSpline
 70
0
 71
3
 72
10
 73
6
 74
4
 40
0.000000
 40
0.000000
 40
0.000000
 40
0.000000
 40
5.625426
 40
7.697951
 40
7.994026
 40
7.994026
 40
7.994026
 40
7.994026
 10
32.922221
 20
488.602412
 30
0.0
 10
34.797363
 20
488.602412
 30
0.0
 10
37.363347
 20
488.602412
 30
0.0
 10
40.028022
 20
488.602412
 30
0.0
 10
40.817556
 20
488.602412
 30
0.0
 10
40.916247
 20
488.602412
 30
0.0
 11
32.922221
 21
488.602412
 31
0.0
 11
38.547647
 21
488.602412
 31
0.0
 11
40.620172
 21
488.602412
 31
0.0
 11
40.916247
 21
488.602412
 31
0.0
  0
SPLINE
  5
108
100
AcDbEntity
  8
Layer_1
 62
1
100
AcDbSpline
 70
0
 71
3
 72
10
 73
6
 74
4
 40
0.000000
 40
0.000000
 40
0.000000
 40
0.000000
 40
23.178067
 40
31.717355
 40
32.937254
 40
32.937254
 40
32.937254
 40
32.937254
 10
32.943616
 20
459.686939
 30
0.0
 10
32.943616
 20
467.412961
 30
0.0
 10
32.943616
 20
477.985413
 30
0.0
 10
32.943616
 20
488.964498
 30
0.0
 10
32.943616
 20
492.217560
 30
0.0
 10
32.943616
 20
492.624192
 30
0.0
 11
32.943616
 21
459.686939
 31
0.0
 11
32.943616
 21
482.865006
 31
0.0
 11
32.943616
 21
491.404294
 31
0.0
 11
32.943616
 21
492.624192
 31
0.0
  0
SPLINE
  5
109
100
AcDbEntity
  8
Layer_1
 62
1
100
AcDbSpline
 70
0
 71
3
 72
10
 73
6
 74
4
 40
0.000000
 40
0.000000
 40
0.000000
 40
0.000000
 40
347.664186
 40
475.750991
 40
494.049106
 40
494.049106
 40
494.049106
 40
494.049106
 10
87.313360
 20
517.214682
 30
0.0
 10
203.201423
 20
517.214682
 30
0.0
 10
361.785086
 20
517.214682
 30
0.0
 10
526.468122
 20
517.214682
 30
0.0
 10
575.263095
 20
517.214682
 30
0.0
 10
581.362467
 20
517.214682
 30
0.0
 11
87.313360
 21
517.214682
 31
0.0
 11
434.977547
 21
517.214682
 31
0.0
 11
563.064352
 21
517.214682
 31
0.0
 11
581.362467
 21
517.214682
 31
0.0
  0
SPLINE
  5
10a
100
AcDbEntity
  8
Layer_1
 62
1
100
AcDbSpline
 70
0
 71
3
 72
10
 73
6
 74
4
 40
0.000000
 40
0.000000
 40
0.000000
 40
0.000000
 40
9.765774
 40
13.363691
 40
13.877679
 40
13.877679
 40
13.877679
 40
13.877679
 10
87.880506
 20
510.222454
 30
0.0
 10
87.880506
 20
513.477712
 30
0.0
 10
87.880506
 20
517.932276
 30
0.0
 10
87.880506
 20
522.558169
 30
0.0
 10
87.880506
 20
523.928804
 30
0.0
 10
87.880506
 20
524.100134
 30
0.0
 11
87.880506
 21
510.222454
 31
0.0
 11
87.880506
 21
519.988229
 31
0.0
 11
87.880506
 21
523.586146
 31
0.0
 11
87.880506
 21
524.100134
 31
0.0
  0
LWPOLYLINE
  5
10b
100
AcDbEntity
  8
Layer_1
 62
7
100
AcDbPolyline
 90
3
 70
0
 10
88.475190
 20
497.811910
 30
0.0
 10
88.475190
 20
452.757150
 30
0.0
 10
88.575980
 20
452.757150
 30
0.0
  0
SPLINE
  5
10c
100
AcDbEntity
  8
Layer_1
 62
1
100
AcDbSpline
 70
0
 71
3
 72
10
 73
6
 74
4
 40
0.000000
 40
0.000000
 40
0.000000
 40
0.000000
 40
9.765774
 40
13.363691
 40
13.877679
 40
13.877679
 40
13.877679
 40
13.877679
 10
580.802538
 20
510.679022
 30
0.0
 10
580.802538
 20
513.934280
 30
0.0
 10
580.802538
 20
518.388844
 30
0.0
 10
580.802538
 20
523.014737
 30
0.0
 10
580.802538
 20
524.385372
 30
0.0
 10
580.802538
 20
524.556702
 30
0.0
 11
580.802538
 21
510.679022
 31
0.0
 11
580.802538
 21
520.444797
 31
0.0
 11
580.802538
 21
524.042713
 31
0.0
 11
580.802538
 21
524.556702
 31
0.0
  0
SPLINE
  5
10d
100
AcDbEntity
  8
Layer_1
 62
1
100
AcDbSpline
 70
0
 71
3
 72
10
 73
6
 74
4
 40
0.000000
 40
0.000000
 40
0.000000
 40
0.000000
 40
308.707286
 40
422.441549
 40
438.689301
 40
438.689301
 40
438.689301
 40
438.689301
 10
16.955431
 20
450.944253
 30
0.0
 10
16.955431
 20
348.041824
 30
0.0
 10
16.955431
 20
207.227975
 30
0.0
 10
16.955431
 20
60.998208
 30
0.0
 10
16.955431
 20
17.670869
 30
0.0
 10
16.955431
 20
12.254952
 30
0.0
 11
16.955431
 21
450.944253
 31
0.0
 11
16.955431
 21
142.236967
 31
0.0
 11
16.955431
 21
28.502704
 31
0.0
 11
16.955431
 21
12.254952
 31
0.0
  0
LWPOLYLINE
  5
10e
100
AcDbEntity
  8
Layer_1
 62
7
100
AcDbPolyline
 90
3
 70
0
 10
42.155745
 20
450.176442
 30
0.0
 10
87.210507
 20
450.176442
 30
0.0
 10
87.210507
 20
450.277235
 30
0.0
  0
SPLINE
  5
10f
100
AcDbEntity
  8
Layer_1
 62
1
100
AcDbSpline
 70
0
 71
3
 72
10
 73
6
 74
4
 40
0.000000
 40
0.000000
 40
0.000000
 40
0.000000
 40
9.765775
 40
13.363692
 40
13.877680
 40
13.877680
 40
13.877680
 40
13.877680
 10
10.419766
 20
451.349996
 30
0.0
 10
13.675024
 20
451.349996
 30
0.0
 10
18.129588
 20
451.349996
 30
0.0
 10
22.755481
 20
451.349996
 30
0.0
 10
24.126116
 20
451.349996
 30
0.0
 10
24.297446
 20
451.349996
 30
0.0
 11
10.419766
 21
451.349996
 31
0.0
 11
20.185541
 21
451.349996
 31
0.0
 11
23.783458
 21
451.349996
 31
0.0
 11
24.297446
 21
451.349996
 31
0.0
  0
LWPOLYLINE
  5
110
100
AcDbEntity
  8
Layer_1
 62
7
100
AcDbPolyline
 90
3
 70
0
 10
582.344967
 20
496.062533
 30
0.0
 10
582.344967
 20
451.007773
 30
0.0
 10
582.445749
 20
451.007773
 30
0.0
  0
SPLINE
  5
111
100
AcDbEntity
  8
Layer_1
 62
1
100
AcDbSpline
 70
0
 71
3
 72
10
 73
6
 74
4
 40
0.000000
 40
0.000000
 40
0.000000
 40
0.000000
 40
9.765774
 40
13.363691
 40
13.877679
 40
13.877679
 40
13.877679
 40
13.877679
 10
10.220918
 20
12.627556
 30
0.0
 10
13.476176
 20
12.627556
 30
0.0
 10
17.930740
 20
12.627556
 30
0.0
 10
22.556633
 20
12.627556
 30
0.0
 10
23.927268
 20
12.627556
 30
0.0
 10
24.098597
 20
12.627556
 30
0.0
 11
10.220918
 21
12.627556
 31
0.0
 11
19.986692
 21
12.627556
 31
0.0
 11
23.584609
 21
12.627556
 31
0.0
 11
24.098597
 21
12.627556
 31
0.0
  0
LWPOLYLINE
  5
112
100
AcDbEntity
  8
Layer_1
 62
7
100
AcDbPolyline
 90
3
 70
0
 10
41.400631
 20
11.770811
 30
0.0
 10
86.455391
 20
11.770811
 30
0.0
 10
86.455391
 20
11.871604
 30
0.0
  0
ENDSEC
  0
SECTION
  2
OBJECTS
  0
DICTIONARY
  5
C
330
0
100
AcDbDictionary
  3
ACAD_GROUP
350
D
  3
ACAD_MLINESTYLE
350
17
  0
DICTIONARY
  5
D
330
C
100
AcDbDictionary
  0
DICTIONARY
  5
1A
330
C
100
AcDbDictionary
  0
DICTIONARY
  5
17
330
C
100
AcDbDictionary
  3
STANDARD
350
18
  0
DICTIONARY
  5
19
330
C
100
AcDbDictionary
  0
ENDSEC
  0
EOF
