999
DXF created by Inkscape
  0
SECTION
  2
HEADER
  9
$ACADVER
  1
AC1014
  9
$HANDSEED
  5
FFFF
  9
$MEASUREMENT
 70
     1
  0
ENDSEC
  0
SECTION
  2
TABLES
  0
TABLE
  2
VPORT
  5
8
330
0
100
AcDbSymbolTable
 70
     4
  0
VPORT
  5
2E
330
8
100
AcDbSymbolTableRecord
100
AcDbViewportTableRecord
  2
*ACTIVE
 70
     0
 10
0.0
 20
0.0
 11
1.0
 21
1.0
 12
210.0
 22
148.5
 13
0.0
 23
0.0
 14
10.0
 24
10.0
 15
10.0
 25
10.0
 16
0.0
 26
0.0
 36
1.0
 17
0.0
 27
0.0
 37
0.0
 40
341.0
 41
1.24
 42
50.0
 43
0.0
 44
0.0
 50
0.0
 51
0.0
 71
     0
 72
   100
 73
     1
 74
     3
 75
     0
 76
     0
 77
     0
 78
     0
  0
ENDTAB
  0
TABLE
  2
LTYPE
  5
5
330
0
100
AcDbSymbolTable
 70
     1
  0
LTYPE
  5
14
330
5
100
AcDbSymbolTableRecord
100
AcDbLinetypeTableRecord
  2
BYBLOCK
 70
     0
  3

 72
    65
 73
     0
 40
0.0
  0
LTYPE
  5
15
330
5
100
AcDbSymbolTableRecord
100
AcDbLinetypeTableRecord
  2
BYLAYER
 70
     0
  3

 72
    65
 73
     0
 40
0.0
  0
LTYPE
  5
16
330
5
100
AcDbSymbolTableRecord
100
AcDbLinetypeTableRecord
  2
CONTINUOUS
 70
     0
  3
Solid line
 72
    65
 73
     0
 40
0.0
  0
ENDTAB
  0
TABLE
  2
LAYER
  5
2
100
AcDbSymbolTable
 70
2
  0
LAYER
  5
50
100
AcDbSymbolTableRecord
100
AcDbLayerTableRecord
  2
0
 70
0
  6
CONTINUOUS
  0
LAYER
  5
51
100
AcDbSymbolTableRecord
100
AcDbLayerTableRecord
  2
Layer_1
 70
0
  6
CONTINUOUS
  0
ENDTAB
  0
TABLE
  2
STYLE
  5
3
330
0
100
AcDbSymbolTable
 70
     1
  0
STYLE
  5
11
330
3
100
AcDbSymbolTableRecord
100
AcDbTextStyleTableRecord
  2
STANDARD
 70
     0
 40
0.0
 41
1.0
 50
0.0
 71
     0
 42
2.5
  3
txt
  4

  0
ENDTAB
  0
TABLE
  2
VIEW
  5
6
330
0
100
AcDbSymbolTable
 70
     0
  0
ENDTAB
  0
TABLE
  2
UCS
  5
7
330
0
100
AcDbSymbolTable
 70
     0
  0
ENDTAB
  0
TABLE
  2
APPID
  5
9
330
0
100
AcDbSymbolTable
 70
     2
  0
APPID
  5
12
330
9
100
AcDbSymbolTableRecord
100
AcDbRegAppTableRecord
  2
ACAD
 70
     0
  0
ENDTAB
  0
TABLE
  2
DIMSTYLE
  5
A
330
0
100
AcDbSymbolTable
 70
     1
  0
DIMSTYLE
105
27
330
A
100
AcDbSymbolTableRecord
100
AcDbDimStyleTableRecord
  2
ISO-25
 70
     0
  3

  4

  5

  6

  7

 40
1.0
 41
2.5
 42
0.625
 43
3.75
 44
1.25
 45
0.0
 46
0.0
 47
0.0
 48
0.0
140
2.5
141
2.5
142
0.0
143
0.03937007874016
144
1.0
145
0.0
146
1.0
147
0.625
 71
     0
 72
     0
 73
     0
 74
     0
 75
     0
 76
     0
 77
     1
 78
     8
170
     0
171
     3
172
     1
173
     0
174
     0
175
     0
176
     0
177
     0
178
     0
270
     2
271
     2
272
     2
273
     2
274
     3
340
11
275
     0
280
     0
281
     0
282
     0
283
     0
284
     8
285
     0
286
     0
287
     3
288
     0
  0
ENDTAB
  0
TABLE
  2
BLOCK_RECORD
  5
1
330
0
100
AcDbSymbolTable
 70
     1
  0
BLOCK_RECORD
  5
1F
330
1
100
AcDbSymbolTableRecord
100
AcDbBlockTableRecord
  2
*MODEL_SPACE
  0
BLOCK_RECORD
  5
1B
330
1
100
AcDbSymbolTableRecord
100
AcDbBlockTableRecord
  2
*PAPER_SPACE
  0
ENDTAB
  0
ENDSEC
  0
SECTION
  2
BLOCKS
  0
BLOCK
  5
20
330
1F
100
AcDbEntity
  8
0
100
AcDbBlockBegin
  2
*MODEL_SPACE
 70
     0
 10
0.0
 20
0.0
 30
0.0
  3
*MODEL_SPACE
  1

  0
ENDBLK
  5
21
330
1F
100
AcDbEntity
  8
0
100
AcDbBlockEnd
  0
BLOCK
  5
1C
330
1B
100
AcDbEntity
 67
     1
  8
0
100
AcDbBlockBegin
  2
*PAPER_SPACE
  1

  0
ENDBLK
  5
1D
330
1B
100
AcDbEntity
 67
     1
  8
0
100
AcDbBlockEnd
  0
ENDSEC
  0
SECTION
  2
ENTITIES
  0
LWPOLYLINE
  5
100
100
AcDbEntity
  8
Layer_1
 62
7
100
AcDbPolyline
 90
5
 70
0
 10
16.046073
 20
396.884439
 30
0.0
 10
509.181626
 20
396.884439
 30
0.0
 10
509.181626
 20
26.448892
 30
0.0
 10
16.046073
 20
26.448892
 30
0.0
 10
16.046073
 20
396.884439
 30
0.0
  0
LWPOLYLINE
  5
101
100
AcDbEntity
  8
Layer_1
 62
7
100
AcDbPolyline
 90
5
 70
0
 10
24.396072
 20
386.884913
 30
0.0
 10
500.831633
 20
386.884913
 30
0.0
 10
500.831633
 20
84.449343
 30
0.0
 10
24.396072
 20
84.449343
 30
0.0
 10
24.396072
 20
386.884913
 30
0.0
  0
LWPOLYLINE
  5
102
100
AcDbEntity
  8
Layer_1
 62
7
100
AcDbPolyline
 90
2
 70
0
 10
503.181602
 20
77.667148
 30
0.0
 10
503.181602
 20
77.667148
 30
0.0
  0
SPLINE
  5
103
100
AcDbEntity
  8
Layer_1
 62
7
100
AcDbSpline
 70
0
 71
3
 72
19
 73
15
 74
13
 40
0.000000
 40
0.000000
 40
0.000000
 40
0.000000
 40
0.636741
 40
1.254586
 40
1.891304
 40
2.528022
 40
3.145867
 40
3.782608
 40
4.419310
 40
5.037145
 40
5.673862
 40
6.310579
 40
6.928414
 40
7.565116
 40
7.565116
 40
7.565116
 40
7.565116
 10
503.181602
 20
77.667148
 30
0.0
 10
503.148132
 20
77.452469
 30
0.0
 10
503.082185
 20
77.029482
 30
0.0
 10
502.597371
 20
76.563806
 30
0.0
 10
501.964952
 20
76.391255
 30
0.0
 10
501.325893
 20
76.563806
 30
0.0
 10
500.860606
 20
77.029482
 30
0.0
 10
500.687933
 20
77.667136
 30
0.0
 10
500.860612
 20
78.304783
 30
0.0
 10
501.325898
 20
78.770435
 30
0.0
 10
501.964952
 20
78.942984
 30
0.0
 10
502.597366
 20
78.770435
 30
0.0
 10
503.082178
 20
78.304784
 30
0.0
 10
503.148130
 20
77.881814
 30
0.0
 10
503.181602
 20
77.667148
 30
0.0
 11
503.181602
 21
77.667148
 31
0.0
 11
503.015339
 21
77.052498
 31
0.0
 11
502.578461
 21
76.615611
 31
0.0
 11
501.963834
 21
76.449346
 31
0.0
 11
501.349208
 21
76.615611
 31
0.0
 11
500.912330
 21
77.052498
 31
0.0
 11
500.746066
 21
77.667148
 31
0.0
 11
500.912330
 21
78.281759
 31
0.0
 11
501.349208
 21
78.718631
 31
0.0
 11
501.963834
 21
78.884894
 31
0.0
 11
502.578461
 21
78.718631
 31
0.0
 11
503.015339
 21
78.281759
 31
0.0
 11
503.181602
 21
77.667148
 31
0.0
  0
LWPOLYLINE
  5
104
100
AcDbEntity
  8
Layer_1
 62
7
100
AcDbPolyline
 90
5
 70
0
 10
126.046073
 20
81.884900
 30
0.0
 10
229.481630
 20
81.884900
 30
0.0
 10
229.481630
 20
31.449344
 30
0.0
 10
126.046073
 20
31.449344
 30
0.0
 10
126.046073
 20
81.884900
 30
0.0
  0
SPLINE
  5
105
100
AcDbEntity
  8
Layer_1
 62
7
100
AcDbSpline
 70
0
 71
3
 72
19
 73
15
 74
13
 40
0.000000
 40
0.000000
 40
0.000000
 40
0.000000
 40
0.636741
 40
1.254586
 40
1.891304
 40
2.528022
 40
3.145867
 40
3.782608
 40
4.419310
 40
5.037145
 40
5.673862
 40
6.310579
 40
6.928414
 40
7.565116
 40
7.565116
 40
7.565116
 40
7.565116
 10
23.481605
 20
77.667148
 30
0.0
 10
23.448135
 20
77.452469
 30
0.0
 10
23.382187
 20
77.029482
 30
0.0
 10
22.897374
 20
76.563806
 30
0.0
 10
22.264955
 20
76.391255
 30
0.0
 10
21.625895
 20
76.563806
 30
0.0
 10
21.160609
 20
77.029482
 30
0.0
 10
20.987936
 20
77.667136
 30
0.0
 10
21.160615
 20
78.304783
 30
0.0
 10
21.625901
 20
78.770435
 30
0.0
 10
22.264955
 20
78.942984
 30
0.0
 10
22.897369
 20
78.770435
 30
0.0
 10
23.382181
 20
78.304784
 30
0.0
 10
23.448133
 20
77.881814
 30
0.0
 10
23.481605
 20
77.667148
 30
0.0
 11
23.481605
 21
77.667148
 31
0.0
 11
23.315342
 21
77.052498
 31
0.0
 11
22.878463
 21
76.615611
 31
0.0
 11
22.263837
 21
76.449346
 31
0.0
 11
21.649211
 21
76.615611
 31
0.0
 11
21.212332
 21
77.052498
 31
0.0
 11
21.046069
 21
77.667148
 31
0.0
 11
21.212332
 21
78.281759
 31
0.0
 11
21.649211
 21
78.718631
 31
0.0
 11
22.263837
 21
78.884894
 31
0.0
 11
22.878463
 21
78.718631
 31
0.0
 11
23.315342
 21
78.281759
 31
0.0
 11
23.481605
 21
77.667148
 31
0.0
  0
LWPOLYLINE
  5
106
100
AcDbEntity
  8
Layer_1
 62
7
100
AcDbPolyline
 90
2
 70
0
 10
23.481605
 20
77.667148
 30
0.0
 10
23.481605
 20
77.667148
 30
0.0
  0
SPLINE
  5
107
100
AcDbEntity
  8
Layer_1
 62
7
100
AcDbSpline
 70
0
 71
3
 72
19
 73
15
 74
13
 40
0.000000
 40
0.000000
 40
0.000000
 40
0.000000
 40
0.636741
 40
1.254586
 40
1.891304
 40
2.528022
 40
3.145867
 40
3.782608
 40
4.419310
 40
5.037145
 40
5.673862
 40
6.310579
 40
6.928414
 40
7.565116
 40
7.565116
 40
7.565116
 40
7.565116
 10
26.481599
 20
393.667165
 30
0.0
 10
26.448129
 20
393.452486
 30
0.0
 10
26.382181
 20
393.029499
 30
0.0
 10
25.897368
 20
392.563823
 30
0.0
 10
25.264949
 20
392.391272
 30
0.0
 10
24.625889
 20
392.563823
 30
0.0
 10
24.160603
 20
393.029499
 30
0.0
 10
23.987930
 20
393.667153
 30
0.0
 10
24.160609
 20
394.304801
 30
0.0
 10
24.625895
 20
394.770452
 30
0.0
 10
25.264949
 20
394.943001
 30
0.0
 10
25.897363
 20
394.770452
 30
0.0
 10
26.382175
 20
394.304801
 30
0.0
 10
26.448127
 20
393.881831
 30
0.0
 10
26.481599
 20
393.667165
 30
0.0
 11
26.481599
 21
393.667165
 31
0.0
 11
26.315336
 21
393.052515
 31
0.0
 11
25.878457
 21
392.615628
 31
0.0
 11
25.263831
 21
392.449363
 31
0.0
 11
24.649205
 21
392.615628
 31
0.0
 11
24.212326
 21
393.052515
 31
0.0
 11
24.046063
 21
393.667165
 31
0.0
 11
24.212326
 21
394.281776
 31
0.0
 11
24.649205
 21
394.718648
 31
0.0
 11
25.263831
 21
394.884911
 31
0.0
 11
25.878457
 21
394.718648
 31
0.0
 11
26.315336
 21
394.281776
 31
0.0
 11
26.481599
 21
393.667165
 31
0.0
  0
LWPOLYLINE
  5
108
100
AcDbEntity
  8
Layer_1
 62
7
100
AcDbPolyline
 90
2
 70
0
 10
26.481599
 20
393.667165
 30
0.0
 10
26.481599
 20
393.667165
 30
0.0
  0
LWPOLYLINE
  5
109
100
AcDbEntity
  8
Layer_1
 62
7
100
AcDbPolyline
 90
2
 70
0
 10
500.831594
 20
393.667165
 30
0.0
 10
500.831594
 20
393.667165
 30
0.0
  0
LWPOLYLINE
  5
10a
100
AcDbEntity
  8
Layer_1
 62
7
100
AcDbPolyline
 90
5
 70
0
 10
541.073931
 20
396.884439
 30
0.0
 10
547.509488
 20
396.884439
 30
0.0
 10
547.509488
 20
26.448892
 30
0.0
 10
541.073931
 20
26.448892
 30
0.0
 10
541.073931
 20
396.884439
 30
0.0
  0
LWPOLYLINE
  5
10b
100
AcDbEntity
  8
Layer_1
 62
7
100
AcDbPolyline
 90
5
 70
0
 10
548.073917
 20
81.884900
 30
0.0
 10
562.509472
 20
81.884900
 30
0.0
 10
562.509472
 20
31.449344
 30
0.0
 10
548.073917
 20
31.449344
 30
0.0
 10
548.073917
 20
81.884900
 30
0.0
  0
LWPOLYLINE
  5
10c
100
AcDbEntity
  8
Layer_1
 62
7
100
AcDbPolyline
 90
2
 70
0
 10
540.845444
 20
395.026039
 30
0.0
 10
547.737988
 20
395.026039
 30
0.0
  0
LWPOLYLINE
  5
10d
100
AcDbEntity
  8
Layer_1
 62
7
100
AcDbPolyline
 90
2
 70
0
 10
540.845444
 20
392.308262
 30
0.0
 10
547.737988
 20
392.308262
 30
0.0
  0
LWPOLYLINE
  5
10e
100
AcDbEntity
  8
Layer_1
 62
7
100
AcDbPolyline
 90
2
 70
0
 10
540.845447
 20
79.026022
 30
0.0
 10
547.737991
 20
79.026022
 30
0.0
  0
SPLINE
  5
10f
100
AcDbEntity
  8
Layer_1
 62
7
100
AcDbSpline
 70
0
 71
3
 72
19
 73
15
 74
13
 40
0.000000
 40
0.000000
 40
0.000000
 40
0.000000
 40
0.636741
 40
1.254586
 40
1.891304
 40
2.528022
 40
3.145867
 40
3.782608
 40
4.419310
 40
5.037145
 40
5.673862
 40
6.310579
 40
6.928414
 40
7.565116
 40
7.565116
 40
7.565116
 40
7.565116
 10
500.831594
 20
393.667165
 30
0.0
 10
500.798124
 20
393.452486
 30
0.0
 10
500.732177
 20
393.029499
 30
0.0
 10
500.247363
 20
392.563823
 30
0.0
 10
499.614944
 20
392.391272
 30
0.0
 10
498.975885
 20
392.563823
 30
0.0
 10
498.510598
 20
393.029499
 30
0.0
 10
498.337925
 20
393.667153
 30
0.0
 10
498.510604
 20
394.304801
 30
0.0
 10
498.975890
 20
394.770452
 30
0.0
 10
499.614944
 20
394.943001
 30
0.0
 10
500.247358
 20
394.770452
 30
0.0
 10
500.732170
 20
394.304801
 30
0.0
 10
500.798122
 20
393.881831
 30
0.0
 10
500.831594
 20
393.667165
 30
0.0
 11
500.831594
 21
393.667165
 31
0.0
 11
500.665331
 21
393.052515
 31
0.0
 11
500.228453
 21
392.615628
 31
0.0
 11
499.613826
 21
392.449363
 31
0.0
 11
498.999200
 21
392.615628
 31
0.0
 11
498.562322
 21
393.052515
 31
0.0
 11
498.396058
 21
393.667165
 31
0.0
 11
498.562322
 21
394.281776
 31
0.0
 11
498.999200
 21
394.718648
 31
0.0
 11
499.613826
 21
394.884911
 31
0.0
 11
500.228453
 21
394.718648
 31
0.0
 11
500.665331
 21
394.281776
 31
0.0
 11
500.831594
 21
393.667165
 31
0.0
  0
LWPOLYLINE
  5
110
100
AcDbEntity
  8
Layer_1
 62
7
100
AcDbPolyline
 90
2
 70
0
 10
540.845447
 20
76.308245
 30
0.0
 10
547.737991
 20
76.308245
 30
0.0
  0
ENDSEC
  0
SECTION
  2
OBJECTS
  0
DICTIONARY
  5
C
330
0
100
AcDbDictionary
  3
ACAD_GROUP
350
D
  3
ACAD_MLINESTYLE
350
17
  0
DICTIONARY
  5
D
330
C
100
AcDbDictionary
  0
DICTIONARY
  5
1A
330
C
100
AcDbDictionary
  0
DICTIONARY
  5
17
330
C
100
AcDbDictionary
  3
STANDARD
350
18
  0
DICTIONARY
  5
19
330
C
100
AcDbDictionary
  0
ENDSEC
  0
EOF
