999
DXF created by Inkscape
  0
SECTION
  2
HEADER
  9
$ACADVER
  1
AC1014
  9
$HANDSEED
  5
FFFF
  9
$MEASUREMENT
 70
     1
  0
ENDSEC
  0
SECTION
  2
TABLES
  0
TABLE
  2
VPORT
  5
8
330
0
100
AcDbSymbolTable
 70
     4
  0
VPORT
  5
2E
330
8
100
AcDbSymbolTableRecord
100
AcDbViewportTableRecord
  2
*ACTIVE
 70
     0
 10
0.0
 20
0.0
 11
1.0
 21
1.0
 12
210.0
 22
148.5
 13
0.0
 23
0.0
 14
10.0
 24
10.0
 15
10.0
 25
10.0
 16
0.0
 26
0.0
 36
1.0
 17
0.0
 27
0.0
 37
0.0
 40
341.0
 41
1.24
 42
50.0
 43
0.0
 44
0.0
 50
0.0
 51
0.0
 71
     0
 72
   100
 73
     1
 74
     3
 75
     0
 76
     0
 77
     0
 78
     0
  0
ENDTAB
  0
TABLE
  2
LTYPE
  5
5
330
0
100
AcDbSymbolTable
 70
     1
  0
LTYPE
  5
14
330
5
100
AcDbSymbolTableRecord
100
AcDbLinetypeTableRecord
  2
BYBLOCK
 70
     0
  3

 72
    65
 73
     0
 40
0.0
  0
LTYPE
  5
15
330
5
100
AcDbSymbolTableRecord
100
AcDbLinetypeTableRecord
  2
BYLAYER
 70
     0
  3

 72
    65
 73
     0
 40
0.0
  0
LTYPE
  5
16
330
5
100
AcDbSymbolTableRecord
100
AcDbLinetypeTableRecord
  2
CONTINUOUS
 70
     0
  3
Solid line
 72
    65
 73
     0
 40
0.0
  0
ENDTAB
  0
TABLE
  2
LAYER
  5
2
100
AcDbSymbolTable
 70
2
  0
LAYER
  5
50
100
AcDbSymbolTableRecord
100
AcDbLayerTableRecord
  2
0
 70
0
  6
CONTINUOUS
  0
LAYER
  5
51
100
AcDbSymbolTableRecord
100
AcDbLayerTableRecord
  2
Layer_1
 70
0
  6
CONTINUOUS
  0
ENDTAB
  0
TABLE
  2
STYLE
  5
3
330
0
100
AcDbSymbolTable
 70
     1
  0
STYLE
  5
11
330
3
100
AcDbSymbolTableRecord
100
AcDbTextStyleTableRecord
  2
STANDARD
 70
     0
 40
0.0
 41
1.0
 50
0.0
 71
     0
 42
2.5
  3
txt
  4

  0
ENDTAB
  0
TABLE
  2
VIEW
  5
6
330
0
100
AcDbSymbolTable
 70
     0
  0
ENDTAB
  0
TABLE
  2
UCS
  5
7
330
0
100
AcDbSymbolTable
 70
     0
  0
ENDTAB
  0
TABLE
  2
APPID
  5
9
330
0
100
AcDbSymbolTable
 70
     2
  0
APPID
  5
12
330
9
100
AcDbSymbolTableRecord
100
AcDbRegAppTableRecord
  2
ACAD
 70
     0
  0
ENDTAB
  0
TABLE
  2
DIMSTYLE
  5
A
330
0
100
AcDbSymbolTable
 70
     1
  0
DIMSTYLE
105
27
330
A
100
AcDbSymbolTableRecord
100
AcDbDimStyleTableRecord
  2
ISO-25
 70
     0
  3

  4

  5

  6

  7

 40
1.0
 41
2.5
 42
0.625
 43
3.75
 44
1.25
 45
0.0
 46
0.0
 47
0.0
 48
0.0
140
2.5
141
2.5
142
0.0
143
0.03937007874016
144
1.0
145
0.0
146
1.0
147
0.625
 71
     0
 72
     0
 73
     0
 74
     0
 75
     0
 76
     0
 77
     1
 78
     8
170
     0
171
     3
172
     1
173
     0
174
     0
175
     0
176
     0
177
     0
178
     0
270
     2
271
     2
272
     2
273
     2
274
     3
340
11
275
     0
280
     0
281
     0
282
     0
283
     0
284
     8
285
     0
286
     0
287
     3
288
     0
  0
ENDTAB
  0
TABLE
  2
BLOCK_RECORD
  5
1
330
0
100
AcDbSymbolTable
 70
     1
  0
BLOCK_RECORD
  5
1F
330
1
100
AcDbSymbolTableRecord
100
AcDbBlockTableRecord
  2
*MODEL_SPACE
  0
BLOCK_RECORD
  5
1B
330
1
100
AcDbSymbolTableRecord
100
AcDbBlockTableRecord
  2
*PAPER_SPACE
  0
ENDTAB
  0
ENDSEC
  0
SECTION
  2
BLOCKS
  0
BLOCK
  5
20
330
1F
100
AcDbEntity
  8
0
100
AcDbBlockBegin
  2
*MODEL_SPACE
 70
     0
 10
0.0
 20
0.0
 30
0.0
  3
*MODEL_SPACE
  1

  0
ENDBLK
  5
21
330
1F
100
AcDbEntity
  8
0
100
AcDbBlockEnd
  0
BLOCK
  5
1C
330
1B
100
AcDbEntity
 67
     1
  8
0
100
AcDbBlockBegin
  2
*PAPER_SPACE
  1

  0
ENDBLK
  5
1D
330
1B
100
AcDbEntity
 67
     1
  8
0
100
AcDbBlockEnd
  0
ENDSEC
  0
SECTION
  2
ENTITIES
  0
LWPOLYLINE
  5
100
100
AcDbEntity
  8
Layer_1
 62
7
100
AcDbPolyline
 90
5
 70
0
 10
33.351642
 20
119.622440
 30
0.0
 10
42.069420
 20
119.622440
 30
0.0
 10
42.069420
 20
32.904667
 30
0.0
 10
33.351642
 20
32.904667
 30
0.0
 10
33.351642
 20
119.622440
 30
0.0
  0
LWPOLYLINE
  5
101
100
AcDbEntity
  8
Layer_1
 62
7
100
AcDbPolyline
 90
5
 70
0
 10
89.110185
 20
119.622440
 30
0.0
 10
582.527960
 20
119.622440
 30
0.0
 10
582.527960
 20
32.904659
 30
0.0
 10
89.110185
 20
32.904659
 30
0.0
 10
89.110185
 20
119.622440
 30
0.0
  0
LWPOLYLINE
  5
102
100
AcDbEntity
  8
Layer_1
 62
7
100
AcDbPolyline
 90
5
 70
0
 10
582.527946
 20
165.080863
 30
0.0
 10
89.110171
 20
165.080863
 30
0.0
 10
89.110171
 20
173.798641
 30
0.0
 10
582.527946
 20
173.798641
 30
0.0
 10
582.527946
 20
165.080863
 30
0.0
  0
SPLINE
  5
103
100
AcDbEntity
  8
Layer_1
 62
1
100
AcDbSpline
 70
0
 71
3
 72
10
 73
6
 74
4
 40
0.000000
 40
0.000000
 40
0.000000
 40
0.000000
 40
27.508341
 40
37.642993
 40
39.090800
 40
39.090800
 40
39.090800
 40
39.090800
 10
80.620864
 20
174.457484
 30
0.0
 10
71.451417
 20
174.457484
 30
0.0
 10
58.903753
 20
174.457484
 30
0.0
 10
45.873486
 20
174.457484
 30
0.0
 10
42.012666
 20
174.457484
 30
0.0
 10
41.530064
 20
174.457484
 30
0.0
 11
80.620864
 21
174.457484
 31
0.0
 11
53.112523
 21
174.457484
 31
0.0
 11
42.977871
 21
174.457484
 31
0.0
 11
41.530064
 21
174.457484
 31
0.0
  0
SPLINE
  5
104
100
AcDbEntity
  8
Layer_1
 62
1
100
AcDbSpline
 70
0
 71
3
 72
10
 73
6
 74
4
 40
0.000000
 40
0.000000
 40
0.000000
 40
0.000000
 40
5.625426
 40
7.697951
 40
7.994026
 40
7.994026
 40
7.994026
 40
7.994026
 10
46.111891
 20
166.676773
 30
0.0
 10
46.111891
 20
168.551915
 30
0.0
 10
46.111891
 20
171.117898
 30
0.0
 10
46.111891
 20
173.782574
 30
0.0
 10
46.111891
 20
174.572107
 30
0.0
 10
46.111891
 20
174.670799
 30
0.0
 11
46.111891
 21
166.676773
 31
0.0
 11
46.111891
 21
172.302199
 31
0.0
 11
46.111891
 21
174.374724
 31
0.0
 11
46.111891
 21
174.670799
 31
0.0
  0
SPLINE
  5
105
100
AcDbEntity
  8
Layer_1
 62
1
100
AcDbSpline
 70
0
 71
3
 72
10
 73
6
 74
4
 40
0.000000
 40
0.000000
 40
0.000000
 40
0.000000
 40
28.375986
 40
38.830297
 40
40.323770
 40
40.323770
 40
40.323770
 40
40.323770
 10
81.511956
 20
166.698168
 30
0.0
 10
72.053294
 20
166.698168
 30
0.0
 10
59.109861
 20
166.698168
 30
0.0
 10
45.668605
 20
166.698168
 30
0.0
 10
41.686010
 20
166.698168
 30
0.0
 10
41.188186
 20
166.698168
 30
0.0
 11
81.511956
 21
166.698168
 31
0.0
 11
53.135969
 21
166.698168
 31
0.0
 11
42.681659
 21
166.698168
 31
0.0
 11
41.188186
 21
166.698168
 31
0.0
  0
SPLINE
  5
106
100
AcDbEntity
  8
Layer_1
 62
1
100
AcDbSpline
 70
0
 71
3
 72
10
 73
6
 74
4
 40
0.000000
 40
0.000000
 40
0.000000
 40
0.000000
 40
22.469358
 40
30.747542
 40
31.930140
 40
31.930140
 40
31.930140
 40
31.930140
 10
40.997770
 20
128.847487
 30
0.0
 10
40.997770
 20
136.337273
 30
0.0
 10
40.997770
 20
146.586454
 30
0.0
 10
40.997770
 20
157.229834
 30
0.0
 10
40.997770
 20
160.383428
 30
0.0
 10
40.997770
 20
160.777627
 30
0.0
 11
40.997770
 21
128.847487
 31
0.0
 11
40.997770
 21
151.316845
 31
0.0
 11
40.997770
 21
159.595029
 31
0.0
 11
40.997770
 21
160.777627
 31
0.0
  0
SPLINE
  5
107
100
AcDbEntity
  8
Layer_1
 62
1
100
AcDbSpline
 70
0
 71
3
 72
10
 73
6
 74
4
 40
0.000000
 40
0.000000
 40
0.000000
 40
0.000000
 40
5.625426
 40
7.697951
 40
7.994026
 40
7.994026
 40
7.994026
 40
7.994026
 10
33.217059
 20
157.035100
 30
0.0
 10
35.092201
 20
157.035100
 30
0.0
 10
37.658185
 20
157.035100
 30
0.0
 10
40.322860
 20
157.035100
 30
0.0
 10
41.112393
 20
157.035100
 30
0.0
 10
41.211085
 20
157.035100
 30
0.0
 11
33.217059
 21
157.035100
 31
0.0
 11
38.842485
 21
157.035100
 31
0.0
 11
40.915010
 21
157.035100
 31
0.0
 11
41.211085
 21
157.035100
 31
0.0
  0
SPLINE
  5
108
100
AcDbEntity
  8
Layer_1
 62
1
100
AcDbSpline
 70
0
 71
3
 72
10
 73
6
 74
4
 40
0.000000
 40
0.000000
 40
0.000000
 40
0.000000
 40
23.178067
 40
31.717355
 40
32.937254
 40
32.937254
 40
32.937254
 40
32.937254
 10
33.238454
 20
128.119626
 30
0.0
 10
33.238454
 20
135.845649
 30
0.0
 10
33.238454
 20
146.418101
 30
0.0
 10
33.238454
 20
157.397185
 30
0.0
 10
33.238454
 20
160.650247
 30
0.0
 10
33.238454
 20
161.056880
 30
0.0
 11
33.238454
 21
128.119626
 31
0.0
 11
33.238454
 21
151.297694
 31
0.0
 11
33.238454
 21
159.836982
 31
0.0
 11
33.238454
 21
161.056880
 31
0.0
  0
SPLINE
  5
109
100
AcDbEntity
  8
Layer_1
 62
1
100
AcDbSpline
 70
0
 71
3
 72
10
 73
6
 74
4
 40
0.000000
 40
0.000000
 40
0.000000
 40
0.000000
 40
347.664176
 40
475.750978
 40
494.049092
 40
494.049092
 40
494.049092
 40
494.049092
 10
87.608198
 20
185.647370
 30
0.0
 10
203.496257
 20
185.647370
 30
0.0
 10
362.079916
 20
185.647370
 30
0.0
 10
526.762947
 20
185.647370
 30
0.0
 10
575.557919
 20
185.647370
 30
0.0
 10
581.657291
 20
185.647370
 30
0.0
 11
87.608198
 21
185.647370
 31
0.0
 11
435.272374
 21
185.647370
 31
0.0
 11
563.359176
 21
185.647370
 31
0.0
 11
581.657291
 21
185.647370
 31
0.0
  0
SPLINE
  5
10a
100
AcDbEntity
  8
Layer_1
 62
1
100
AcDbSpline
 70
0
 71
3
 72
10
 73
6
 74
4
 40
0.000000
 40
0.000000
 40
0.000000
 40
0.000000
 40
9.765774
 40
13.363691
 40
13.877679
 40
13.877679
 40
13.877679
 40
13.877679
 10
88.175344
 20
178.655142
 30
0.0
 10
88.175344
 20
181.910400
 30
0.0
 10
88.175344
 20
186.364964
 30
0.0
 10
88.175344
 20
190.990857
 30
0.0
 10
88.175344
 20
192.361492
 30
0.0
 10
88.175344
 20
192.532821
 30
0.0
 11
88.175344
 21
178.655142
 31
0.0
 11
88.175344
 21
188.420916
 31
0.0
 11
88.175344
 21
192.018833
 31
0.0
 11
88.175344
 21
192.532821
 31
0.0
  0
LWPOLYLINE
  5
10b
100
AcDbEntity
  8
Layer_1
 62
7
100
AcDbPolyline
 90
3
 70
0
 10
88.770028
 20
166.244597
 30
0.0
 10
88.770028
 20
121.189837
 30
0.0
 10
88.870818
 20
121.189837
 30
0.0
  0
LWPOLYLINE
  5
10c
100
AcDbEntity
  8
Layer_1
 62
7
100
AcDbPolyline
 90
3
 70
0
 10
42.450583
 20
118.609130
 30
0.0
 10
87.505345
 20
118.609130
 30
0.0
 10
87.505345
 20
118.709923
 30
0.0
  0
SPLINE
  5
10d
100
AcDbEntity
  8
Layer_1
 62
1
100
AcDbSpline
 70
0
 71
3
 72
10
 73
6
 74
4
 40
0.000000
 40
0.000000
 40
0.000000
 40
0.000000
 40
9.765774
 40
13.363691
 40
13.877679
 40
13.877679
 40
13.877679
 40
13.877679
 10
581.097362
 20
179.111710
 30
0.0
 10
581.097362
 20
182.366968
 30
0.0
 10
581.097362
 20
186.821532
 30
0.0
 10
581.097362
 20
191.447425
 30
0.0
 10
581.097362
 20
192.818060
 30
0.0
 10
581.097362
 20
192.989389
 30
0.0
 11
581.097362
 21
179.111710
 31
0.0
 11
581.097362
 21
188.877484
 31
0.0
 11
581.097362
 21
192.475401
 31
0.0
 11
581.097362
 21
192.989389
 31
0.0
  0
SPLINE
  5
10e
100
AcDbEntity
  8
Layer_1
 62
1
100
AcDbSpline
 70
0
 71
3
 72
10
 73
6
 74
4
 40
0.000000
 40
0.000000
 40
0.000000
 40
0.000000
 40
61.187265
 40
83.729942
 40
86.950324
 40
86.950324
 40
86.950324
 40
86.950324
 10
17.653443
 20
119.738713
 30
0.0
 10
17.653443
 20
99.342958
 30
0.0
 10
17.653443
 20
71.432977
 30
0.0
 10
17.653443
 20
42.449536
 30
0.0
 10
17.653443
 20
33.861849
 30
0.0
 10
17.653443
 20
32.788389
 30
0.0
 11
17.653443
 21
119.738713
 31
0.0
 11
17.653443
 21
58.551448
 31
0.0
 11
17.653443
 21
36.008771
 31
0.0
 11
17.653443
 21
32.788389
 31
0.0
  0
SPLINE
  5
10f
100
AcDbEntity
  8
Layer_1
 62
1
100
AcDbSpline
 70
0
 71
3
 72
10
 73
6
 74
4
 40
0.000000
 40
0.000000
 40
0.000000
 40
0.000000
 40
9.765774
 40
13.363691
 40
13.877679
 40
13.877679
 40
13.877679
 40
13.877679
 10
10.714603
 20
119.782683
 30
0.0
 10
13.969862
 20
119.782683
 30
0.0
 10
18.424425
 20
119.782683
 30
0.0
 10
23.050318
 20
119.782683
 30
0.0
 10
24.420953
 20
119.782683
 30
0.0
 10
24.592283
 20
119.782683
 30
0.0
 11
10.714603
 21
119.782683
 31
0.0
 11
20.480378
 21
119.782683
 31
0.0
 11
24.078295
 21
119.782683
 31
0.0
 11
24.592283
 21
119.782683
 31
0.0
  0
LWPOLYLINE
  5
110
100
AcDbEntity
  8
Layer_1
 62
7
100
AcDbPolyline
 90
3
 70
0
 10
41.880409
 20
33.100072
 30
0.0
 10
86.935169
 20
33.100072
 30
0.0
 10
86.935169
 20
33.200865
 30
0.0
  0
SPLINE
  5
111
100
AcDbEntity
  8
Layer_1
 62
1
100
AcDbSpline
 70
0
 71
3
 72
10
 73
6
 74
4
 40
0.000000
 40
0.000000
 40
0.000000
 40
0.000000
 40
9.765774
 40
13.363691
 40
13.877679
 40
13.877679
 40
13.877679
 40
13.877679
 10
10.138695
 20
33.133276
 30
0.0
 10
13.393953
 20
33.133276
 30
0.0
 10
17.848517
 20
33.133276
 30
0.0
 10
22.474410
 20
33.133276
 30
0.0
 10
23.845045
 20
33.133276
 30
0.0
 10
24.016375
 20
33.133276
 30
0.0
 11
10.138695
 21
33.133276
 31
0.0
 11
19.904469
 21
33.133276
 31
0.0
 11
23.502386
 21
33.133276
 31
0.0
 11
24.016375
 21
33.133276
 31
0.0
  0
LWPOLYLINE
  5
112
100
AcDbEntity
  8
Layer_1
 62
7
100
AcDbPolyline
 90
3
 70
0
 10
582.639791
 20
164.495220
 30
0.0
 10
582.639791
 20
119.440460
 30
0.0
 10
582.740572
 20
119.440460
 30
0.0
  0
ENDSEC
  0
SECTION
  2
OBJECTS
  0
DICTIONARY
  5
C
330
0
100
AcDbDictionary
  3
ACAD_GROUP
350
D
  3
ACAD_MLINESTYLE
350
17
  0
DICTIONARY
  5
D
330
C
100
AcDbDictionary
  0
DICTIONARY
  5
1A
330
C
100
AcDbDictionary
  0
DICTIONARY
  5
17
330
C
100
AcDbDictionary
  3
STANDARD
350
18
  0
DICTIONARY
  5
19
330
C
100
AcDbDictionary
  0
ENDSEC
  0
EOF
