999
DXF created by Inkscape
  0
SECTION
  2
HEADER
  9
$ACADVER
  1
AC1014
  9
$HANDSEED
  5
FFFF
  9
$MEASUREMENT
 70
     1
  0
ENDSEC
  0
SECTION
  2
TABLES
  0
TABLE
  2
VPORT
  5
8
330
0
100
AcDbSymbolTable
 70
     4
  0
VPORT
  5
2E
330
8
100
AcDbSymbolTableRecord
100
AcDbViewportTableRecord
  2
*ACTIVE
 70
     0
 10
0.0
 20
0.0
 11
1.0
 21
1.0
 12
210.0
 22
148.5
 13
0.0
 23
0.0
 14
10.0
 24
10.0
 15
10.0
 25
10.0
 16
0.0
 26
0.0
 36
1.0
 17
0.0
 27
0.0
 37
0.0
 40
341.0
 41
1.24
 42
50.0
 43
0.0
 44
0.0
 50
0.0
 51
0.0
 71
     0
 72
   100
 73
     1
 74
     3
 75
     0
 76
     0
 77
     0
 78
     0
  0
ENDTAB
  0
TABLE
  2
LTYPE
  5
5
330
0
100
AcDbSymbolTable
 70
     1
  0
LTYPE
  5
14
330
5
100
AcDbSymbolTableRecord
100
AcDbLinetypeTableRecord
  2
BYBLOCK
 70
     0
  3

 72
    65
 73
     0
 40
0.0
  0
LTYPE
  5
15
330
5
100
AcDbSymbolTableRecord
100
AcDbLinetypeTableRecord
  2
BYLAYER
 70
     0
  3

 72
    65
 73
     0
 40
0.0
  0
LTYPE
  5
16
330
5
100
AcDbSymbolTableRecord
100
AcDbLinetypeTableRecord
  2
CONTINUOUS
 70
     0
  3
Solid line
 72
    65
 73
     0
 40
0.0
  0
ENDTAB
  0
TABLE
  2
LAYER
  5
2
100
AcDbSymbolTable
 70
2
  0
LAYER
  5
50
100
AcDbSymbolTableRecord
100
AcDbLayerTableRecord
  2
0
 70
0
  6
CONTINUOUS
  0
LAYER
  5
51
100
AcDbSymbolTableRecord
100
AcDbLayerTableRecord
  2
Layer_1
 70
0
  6
CONTINUOUS
  0
ENDTAB
  0
TABLE
  2
STYLE
  5
3
330
0
100
AcDbSymbolTable
 70
     1
  0
STYLE
  5
11
330
3
100
AcDbSymbolTableRecord
100
AcDbTextStyleTableRecord
  2
STANDARD
 70
     0
 40
0.0
 41
1.0
 50
0.0
 71
     0
 42
2.5
  3
txt
  4

  0
ENDTAB
  0
TABLE
  2
VIEW
  5
6
330
0
100
AcDbSymbolTable
 70
     0
  0
ENDTAB
  0
TABLE
  2
UCS
  5
7
330
0
100
AcDbSymbolTable
 70
     0
  0
ENDTAB
  0
TABLE
  2
APPID
  5
9
330
0
100
AcDbSymbolTable
 70
     2
  0
APPID
  5
12
330
9
100
AcDbSymbolTableRecord
100
AcDbRegAppTableRecord
  2
ACAD
 70
     0
  0
ENDTAB
  0
TABLE
  2
DIMSTYLE
  5
A
330
0
100
AcDbSymbolTable
 70
     1
  0
DIMSTYLE
105
27
330
A
100
AcDbSymbolTableRecord
100
AcDbDimStyleTableRecord
  2
ISO-25
 70
     0
  3

  4

  5

  6

  7

 40
1.0
 41
2.5
 42
0.625
 43
3.75
 44
1.25
 45
0.0
 46
0.0
 47
0.0
 48
0.0
140
2.5
141
2.5
142
0.0
143
0.03937007874016
144
1.0
145
0.0
146
1.0
147
0.625
 71
     0
 72
     0
 73
     0
 74
     0
 75
     0
 76
     0
 77
     1
 78
     8
170
     0
171
     3
172
     1
173
     0
174
     0
175
     0
176
     0
177
     0
178
     0
270
     2
271
     2
272
     2
273
     2
274
     3
340
11
275
     0
280
     0
281
     0
282
     0
283
     0
284
     8
285
     0
286
     0
287
     3
288
     0
  0
ENDTAB
  0
TABLE
  2
BLOCK_RECORD
  5
1
330
0
100
AcDbSymbolTable
 70
     1
  0
BLOCK_RECORD
  5
1F
330
1
100
AcDbSymbolTableRecord
100
AcDbBlockTableRecord
  2
*MODEL_SPACE
  0
BLOCK_RECORD
  5
1B
330
1
100
AcDbSymbolTableRecord
100
AcDbBlockTableRecord
  2
*PAPER_SPACE
  0
ENDTAB
  0
ENDSEC
  0
SECTION
  2
BLOCKS
  0
BLOCK
  5
20
330
1F
100
AcDbEntity
  8
0
100
AcDbBlockBegin
  2
*MODEL_SPACE
 70
     0
 10
0.0
 20
0.0
 30
0.0
  3
*MODEL_SPACE
  1

  0
ENDBLK
  5
21
330
1F
100
AcDbEntity
  8
0
100
AcDbBlockEnd
  0
BLOCK
  5
1C
330
1B
100
AcDbEntity
 67
     1
  8
0
100
AcDbBlockBegin
  2
*PAPER_SPACE
  1

  0
ENDBLK
  5
1D
330
1B
100
AcDbEntity
 67
     1
  8
0
100
AcDbBlockEnd
  0
ENDSEC
  0
SECTION
  2
ENTITIES
  0
LWPOLYLINE
  5
100
100
AcDbEntity
  8
Layer_1
 62
1
100
AcDbPolyline
 90
2
 70
0
 10
664.265945
 20
544.038835
 30
0.0
 10
664.265945
 20
145.572534
 30
0.0
  0
LWPOLYLINE
  5
101
100
AcDbEntity
  8
Layer_1
 62
7
100
AcDbPolyline
 90
2
 70
0
 10
190.948330
 20
543.603344
 30
0.0
 10
673.243970
 20
543.603344
 30
0.0
  0
LWPOLYLINE
  5
102
100
AcDbEntity
  8
Layer_1
 62
7
100
AcDbPolyline
 90
4
 70
0
 10
664.243113
 20
543.739084
 30
0.0
 10
664.243113
 20
547.961343
 30
0.0
 10
199.952280
 20
547.961343
 30
0.0
 10
199.952280
 20
543.739084
 30
0.0
  0
LWPOLYLINE
  5
103
100
AcDbEntity
  8
Layer_1
 62
7
100
AcDbPolyline
 90
4
 70
0
 10
190.947627
 20
543.457011
 30
0.0
 10
190.947627
 20
539.243566
 30
0.0
 10
673.247780
 20
539.243566
 30
0.0
 10
673.247780
 20
543.457011
 30
0.0
  0
LWPOLYLINE
  5
104
100
AcDbEntity
  8
Layer_1
 62
1
100
AcDbPolyline
 90
2
 70
0
 10
571.267909
 20
537.763037
 30
0.0
 10
571.267909
 20
491.160762
 30
0.0
  0
LWPOLYLINE
  5
105
100
AcDbEntity
  8
Layer_1
 62
1
100
AcDbPolyline
 90
2
 70
0
 10
571.267909
 20
543.499207
 30
0.0
 10
571.267909
 20
548.207463
 30
0.0
  0
LWPOLYLINE
  5
106
100
AcDbEntity
  8
Layer_1
 62
1
100
AcDbPolyline
 90
2
 70
0
 10
199.948964
 20
537.763048
 30
0.0
 10
199.948964
 20
499.897383
 30
0.0
  0
LWPOLYLINE
  5
107
100
AcDbEntity
  8
Layer_1
 62
7
100
AcDbPolyline
 90
6
 70
0
 10
190.948333
 20
499.330266
 30
0.0
 10
577.313504
 20
499.330266
 30
0.0
 10
673.266096
 20
140.737542
 30
0.0
 10
673.266096
 20
52.112489
 30
0.0
 10
190.948333
 20
52.112489
 30
0.0
 10
190.948333
 20
499.330266
 30
0.0
  0
LWPOLYLINE
  5
108
100
AcDbEntity
  8
Layer_1
 62
7
100
AcDbPolyline
 90
2
 70
0
 10
200.036190
 20
490.633120
 30
0.0
 10
571.267909
 20
490.633120
 30
0.0
  0
LWPOLYLINE
  5
109
100
AcDbEntity
  8
Layer_1
 62
7
100
AcDbPolyline
 90
2
 70
0
 10
571.648937
 20
490.814078
 30
0.0
 10
664.455711
 20
144.395836
 30
0.0
  0
LWPOLYLINE
  5
10a
100
AcDbEntity
  8
Layer_1
 62
7
100
AcDbPolyline
 90
2
 70
0
 10
664.265945
 20
145.290314
 30
0.0
 10
664.265945
 20
52.156981
 30
0.0
  0
LWPOLYLINE
  5
10b
100
AcDbEntity
  8
Layer_1
 62
1
100
AcDbPolyline
 90
2
 70
0
 10
707.457234
 20
140.764672
 30
0.0
 10
711.996976
 20
140.764672
 30
0.0
  0
LWPOLYLINE
  5
10c
100
AcDbEntity
  8
Layer_1
 62
1
100
AcDbPolyline
 90
2
 70
0
 10
711.757821
 20
145.189533
 30
0.0
 10
716.466078
 20
145.189533
 30
0.0
  0
LWPOLYLINE
  5
10d
100
AcDbEntity
  8
Layer_1
 62
1
100
AcDbPolyline
 90
2
 70
0
 10
666.088480
 20
145.189533
 30
0.0
 10
705.931879
 20
145.189533
 30
0.0
  0
LWPOLYLINE
  5
10e
100
AcDbEntity
  8
Layer_1
 62
1
100
AcDbPolyline
 90
2
 70
0
 10
674.336537
 20
140.764672
 30
0.0
 10
705.931879
 20
140.764672
 30
0.0
  0
LWPOLYLINE
  5
10f
100
AcDbEntity
  8
Layer_1
 62
7
100
AcDbPolyline
 90
2
 70
0
 10
711.817031
 20
52.091909
 30
0.0
 10
711.817031
 20
499.327015
 30
0.0
  0
LWPOLYLINE
  5
110
100
AcDbEntity
  8
Layer_1
 62
7
100
AcDbPolyline
 90
7
 70
0
 10
711.952780
 20
490.980476
 30
0.0
 10
716.175022
 20
490.980476
 30
0.0
 10
716.175022
 20
52.075441
 30
0.0
 10
711.670699
 20
52.091246
 30
0.0
 10
707.457262
 20
52.091246
 30
0.0
 10
707.457262
 20
499.330545
 30
0.0
 10
711.670699
 20
499.330545
 30
0.0
  0
LWPOLYLINE
  5
111
100
AcDbEntity
  8
Layer_1
 62
1
100
AcDbPolyline
 90
2
 70
0
 10
706.813457
 20
490.633120
 30
0.0
 10
580.287392
 20
490.633120
 30
0.0
  0
LWPOLYLINE
  5
112
100
AcDbEntity
  8
Layer_1
 62
7
100
AcDbPolyline
 90
2
 70
0
 10
199.947959
 20
490.633125
 30
0.0
 10
199.947959
 20
52.146567
 30
0.0
  0
LWPOLYLINE
  5
113
100
AcDbEntity
  8
Layer_1
 62
7
100
AcDbPolyline
 90
2
 70
0
 10
135.142955
 20
52.128956
 30
0.0
 10
135.142955
 20
499.364062
 30
0.0
  0
SPLINE
  5
114
100
AcDbEntity
  8
Layer_1
 62
1
100
AcDbSpline
 70
0
 71
3
 72
10
 73
6
 74
4
 40
0.000000
 40
0.000000
 40
0.000000
 40
0.000000
 40
68.284909
 40
93.442507
 40
97.036450
 40
97.036450
 40
97.036450
 40
97.036450
 10
128.890014
 20
52.135656
 30
0.0
 10
106.128378
 20
52.135656
 30
0.0
 10
74.980875
 20
52.135656
 30
0.0
 10
42.635392
 20
52.135656
 30
0.0
 10
33.051545
 20
52.135656
 30
0.0
 10
31.853564
 20
52.135656
 30
0.0
 11
128.890014
 21
52.135656
 31
0.0
 11
60.605105
 21
52.135656
 31
0.0
 11
35.447507
 21
52.135656
 31
0.0
 11
31.853564
 21
52.135656
 31
0.0
  0
LWPOLYLINE
  5
115
100
AcDbEntity
  8
Layer_1
 62
7
100
AcDbPolyline
 90
7
 70
0
 10
135.007215
 20
491.017523
 30
0.0
 10
130.784956
 20
491.017523
 30
0.0
 10
130.784956
 20
52.112489
 30
0.0
 10
135.289287
 20
52.128293
 30
0.0
 10
139.502732
 20
52.128293
 30
0.0
 10
139.502732
 20
499.367593
 30
0.0
 10
135.289287
 20
499.367593
 30
0.0
  0
SPLINE
  5
116
100
AcDbEntity
  8
Layer_1
 62
1
100
AcDbSpline
 70
0
 71
3
 72
10
 73
6
 74
4
 40
0.000000
 40
0.000000
 40
0.000000
 40
0.000000
 40
314.439994
 40
430.286308
 40
446.835781
 40
446.835781
 40
446.835781
 40
446.835781
 10
106.034119
 20
51.925121
 30
0.0
 10
106.034119
 20
156.738453
 30
0.0
 10
106.034119
 20
300.167222
 30
0.0
 10
106.034119
 20
449.112482
 30
0.0
 10
106.034119
 20
493.244411
 30
0.0
 10
106.034119
 20
498.760902
 30
0.0
 11
106.034119
 21
51.925121
 31
0.0
 11
106.034119
 21
366.365115
 31
0.0
 11
106.034119
 21
482.211429
 31
0.0
 11
106.034119
 21
498.760902
 31
0.0
  0
SPLINE
  5
117
100
AcDbEntity
  8
Layer_1
 62
1
100
AcDbSpline
 70
0
 71
3
 72
10
 73
6
 74
4
 40
0.000000
 40
0.000000
 40
0.000000
 40
0.000000
 40
63.767543
 40
87.260848
 40
90.617035
 40
90.617035
 40
90.617035
 40
90.617035
 10
124.789599
 20
499.541394
 30
0.0
 10
103.533752
 20
499.541394
 30
0.0
 10
74.446802
 20
499.541394
 30
0.0
 10
44.241124
 20
499.541394
 30
0.0
 10
35.291293
 20
499.541394
 30
0.0
 10
34.172565
 20
499.541394
 30
0.0
 11
124.789599
 21
499.541394
 31
0.0
 11
61.022056
 21
499.541394
 31
0.0
 11
37.528751
 21
499.541394
 31
0.0
 11
34.172565
 21
499.541394
 31
0.0
  0
SPLINE
  5
118
100
AcDbEntity
  8
Layer_1
 62
1
100
AcDbSpline
 70
0
 71
3
 72
10
 73
6
 74
4
 40
0.000000
 40
0.000000
 40
0.000000
 40
0.000000
 40
63.842744
 40
87.363756
 40
90.723900
 40
90.723900
 40
90.723900
 40
90.723900
 10
124.983414
 20
490.929151
 30
0.0
 10
103.702500
 20
490.929151
 30
0.0
 10
74.581248
 20
490.929151
 30
0.0
 10
44.339948
 20
490.929151
 30
0.0
 10
35.379563
 20
490.929151
 30
0.0
 10
34.259514
 20
490.929151
 30
0.0
 11
124.983414
 21
490.929151
 31
0.0
 11
61.140670
 21
490.929151
 31
0.0
 11
37.619659
 21
490.929151
 31
0.0
 11
34.259514
 21
490.929151
 31
0.0
  0
SPLINE
  5
119
100
AcDbEntity
  8
Layer_1
 62
1
100
AcDbSpline
 70
0
 71
3
 72
10
 73
6
 74
4
 40
0.000000
 40
0.000000
 40
0.000000
 40
0.000000
 40
5.625426
 40
7.697951
 40
7.994026
 40
7.994026
 40
7.994026
 40
7.994026
 10
43.109196
 20
491.357508
 30
0.0
 10
43.109196
 20
493.232650
 30
0.0
 10
43.109196
 20
495.798634
 30
0.0
 10
43.109196
 20
498.463309
 30
0.0
 10
43.109196
 20
499.252843
 30
0.0
 10
43.109196
 20
499.351534
 30
0.0
 11
43.109196
 21
491.357508
 31
0.0
 11
43.109196
 21
496.982934
 31
0.0
 11
43.109196
 21
499.055459
 31
0.0
 11
43.109196
 21
499.351534
 31
0.0
  0
SPLINE
  5
11a
100
AcDbEntity
  8
Layer_1
 62
1
100
AcDbSpline
 70
0
 71
3
 72
10
 73
6
 74
4
 40
0.000000
 40
0.000000
 40
0.000000
 40
0.000000
 40
24.541284
 40
33.582810
 40
34.874457
 40
34.874457
 40
34.874457
 40
34.874457
 10
199.691458
 20
549.584962
 30
0.0
 10
199.691458
 20
557.765390
 30
0.0
 10
199.691458
 20
568.959660
 30
0.0
 10
199.691458
 20
580.584479
 30
0.0
 10
199.691458
 20
584.028870
 30
0.0
 10
199.691458
 20
584.459419
 30
0.0
 11
199.691458
 21
549.584962
 31
0.0
 11
199.691458
 21
574.126246
 31
0.0
 11
199.691458
 21
583.167772
 31
0.0
 11
199.691458
 21
584.459419
 31
0.0
  0
SPLINE
  5
11b
100
AcDbEntity
  8
Layer_1
 62
1
100
AcDbSpline
 70
0
 71
3
 72
10
 73
6
 74
4
 40
0.000000
 40
0.000000
 40
0.000000
 40
0.000000
 40
24.731500
 40
33.843106
 40
35.144764
 40
35.144764
 40
35.144764
 40
35.144764
 10
191.387338
 20
549.286856
 30
0.0
 10
191.387338
 20
557.530690
 30
0.0
 10
191.387338
 20
568.811725
 30
0.0
 10
191.387338
 20
580.526646
 30
0.0
 10
191.387338
 20
583.997734
 30
0.0
 10
191.387338
 20
584.431620
 30
0.0
 11
191.387338
 21
549.286856
 31
0.0
 11
191.387338
 21
574.018356
 31
0.0
 11
191.387338
 21
583.129962
 31
0.0
 11
191.387338
 21
584.431620
 31
0.0
  0
LWPOLYLINE
  5
11c
100
AcDbEntity
  8
Layer_1
 62
1
100
AcDbPolyline
 90
2
 70
0
 10
189.312683
 20
490.633120
 30
0.0
 10
140.085703
 20
490.633120
 30
0.0
  0
LWPOLYLINE
  5
11d
100
AcDbEntity
  8
Layer_1
 62
1
100
AcDbPolyline
 90
2
 70
0
 10
130.396498
 20
504.034498
 30
0.0
 10
130.396498
 20
540.745607
 30
0.0
  0
LWPOLYLINE
  5
11e
100
AcDbEntity
  8
Layer_1
 62
1
100
AcDbPolyline
 90
2
 70
0
 10
135.169143
 20
504.110131
 30
0.0
 10
135.169143
 20
540.689738
 30
0.0
  0
LWPOLYLINE
  5
11f
100
AcDbEntity
  8
Layer_1
 62
1
100
AcDbPolyline
 90
3
 70
0
 10
188.662262
 20
543.785343
 30
0.0
 10
142.834118
 20
543.785343
 30
0.0
 10
142.834118
 20
543.785343
 30
0.0
  0
SPLINE
  5
120
100
AcDbEntity
  8
Layer_1
 62
1
100
AcDbSpline
 70
0
 71
3
 72
10
 73
6
 74
4
 40
0.000000
 40
0.000000
 40
0.000000
 40
0.000000
 40
5.625426
 40
7.697951
 40
7.994026
 40
7.994026
 40
7.994026
 40
7.994026
 10
191.513316
 20
579.487425
 30
0.0
 10
193.388458
 20
579.487425
 30
0.0
 10
195.954442
 20
579.487425
 30
0.0
 10
198.619117
 20
579.487425
 30
0.0
 10
199.408651
 20
579.487425
 30
0.0
 10
199.507342
 20
579.487425
 30
0.0
 11
191.513316
 21
579.487425
 31
0.0
 11
197.138742
 21
579.487425
 31
0.0
 11
199.211267
 21
579.487425
 31
0.0
 11
199.507342
 21
579.487425
 31
0.0
  0
SPLINE
  5
121
100
AcDbEntity
  8
Layer_1
 62
1
100
AcDbSpline
 70
0
 71
3
 72
10
 73
6
 74
4
 40
0.000000
 40
0.000000
 40
0.000000
 40
0.000000
 40
3.215071
 40
4.399571
 40
4.568785
 40
4.568785
 40
4.568785
 40
4.568785
 10
130.620897
 20
536.489498
 30
0.0
 10
131.692588
 20
536.489498
 30
0.0
 10
133.159111
 20
536.489498
 30
0.0
 10
134.682040
 20
536.489498
 30
0.0
 10
135.133278
 20
536.489498
 30
0.0
 10
135.189683
 20
536.489498
 30
0.0
 11
130.620897
 21
536.489498
 31
0.0
 11
133.835969
 21
536.489498
 31
0.0
 11
135.020468
 21
536.489498
 31
0.0
 11
135.189683
 21
536.489498
 31
0.0
  0
SPLINE
  5
122
100
AcDbEntity
  8
Layer_1
 62
1
100
AcDbSpline
 70
0
 71
3
 72
10
 73
6
 74
4
 40
0.000000
 40
0.000000
 40
0.000000
 40
0.000000
 40
2.726132
 40
3.730496
 40
3.873977
 40
3.873977
 40
3.873977
 40
3.873977
 10
145.844470
 20
547.700790
 30
0.0
 10
145.844470
 20
546.792079
 30
0.0
 10
145.844470
 20
545.548580
 30
0.0
 10
145.844470
 20
544.257255
 30
0.0
 10
145.844470
 20
543.874640
 30
0.0
 10
145.844470
 20
543.826813
 30
0.0
 11
145.844470
 21
547.700790
 31
0.0
 11
145.844470
 21
544.974658
 31
0.0
 11
145.844470
 21
543.970294
 31
0.0
 11
145.844470
 21
543.826813
 31
0.0
  0
SPLINE
  5
123
100
AcDbEntity
  8
Layer_1
 62
1
100
AcDbSpline
 70
0
 71
3
 72
10
 73
6
 74
4
 40
0.000000
 40
0.000000
 40
0.000000
 40
0.000000
 40
308.274467
 40
421.849271
 40
438.074243
 40
438.074243
 40
438.074243
 40
438.074243
 10
66.896499
 20
52.453103
 30
0.0
 10
66.896499
 20
155.211258
 30
0.0
 10
66.896499
 20
295.827682
 30
0.0
 10
66.896499
 20
441.852430
 30
0.0
 10
66.896499
 20
485.119022
 30
0.0
 10
66.896499
 20
490.527346
 30
0.0
 11
66.896499
 21
52.453103
 31
0.0
 11
66.896499
 21
360.727570
 31
0.0
 11
66.896499
 21
474.302374
 31
0.0
 11
66.896499
 21
490.527346
 31
0.0
  0
SPLINE
  5
124
100
AcDbEntity
  8
Layer_1
 62
1
100
AcDbSpline
 70
0
 71
3
 72
10
 73
6
 74
4
 40
0.000000
 40
0.000000
 40
0.000000
 40
0.000000
 40
67.448394
 40
92.297803
 40
95.847718
 40
95.847718
 40
95.847718
 40
95.847718
 10
718.965353
 20
52.529430
 30
0.0
 10
741.448151
 20
52.529430
 30
0.0
 10
772.214085
 20
52.529430
 30
0.0
 10
804.163325
 20
52.529430
 30
0.0
 10
813.629766
 20
52.529430
 30
0.0
 10
814.813071
 20
52.529430
 30
0.0
 11
718.965353
 21
52.529430
 31
0.0
 11
786.413747
 21
52.529430
 31
0.0
 11
811.263156
 21
52.529430
 31
0.0
 11
814.813071
 21
52.529430
 31
0.0
  0
SPLINE
  5
125
100
AcDbEntity
  8
Layer_1
 62
1
100
AcDbSpline
 70
0
 71
3
 72
10
 73
6
 74
4
 40
0.000000
 40
0.000000
 40
0.000000
 40
0.000000
 40
314.439996
 40
430.286311
 40
446.835784
 40
446.835784
 40
446.835784
 40
446.835784
 10
740.632512
 20
52.318892
 30
0.0
 10
740.632512
 20
157.132224
 30
0.0
 10
740.632512
 20
300.560994
 30
0.0
 10
740.632512
 20
449.506255
 30
0.0
 10
740.632512
 20
493.638185
 30
0.0
 10
740.632512
 20
499.154676
 30
0.0
 11
740.632512
 21
52.318892
 31
0.0
 11
740.632512
 21
366.758888
 31
0.0
 11
740.632512
 21
482.605202
 31
0.0
 11
740.632512
 21
499.154676
 31
0.0
  0
SPLINE
  5
126
100
AcDbEntity
  8
Layer_1
 62
1
100
AcDbSpline
 70
0
 71
3
 72
10
 73
6
 74
4
 40
0.000000
 40
0.000000
 40
0.000000
 40
0.000000
 40
64.893117
 40
88.801107
 40
92.216534
 40
92.216534
 40
92.216534
 40
92.216534
 10
720.279944
 20
499.650063
 30
0.0
 10
741.910983
 20
499.650063
 30
0.0
 10
771.511352
 20
499.650063
 30
0.0
 10
802.250197
 20
499.650063
 30
0.0
 10
811.358003
 20
499.650063
 30
0.0
 10
812.496478
 20
499.650063
 30
0.0
 11
720.279944
 21
499.650063
 31
0.0
 11
785.173061
 21
499.650063
 31
0.0
 11
809.081051
 21
499.650063
 31
0.0
 11
812.496478
 21
499.650063
 31
0.0
  0
SPLINE
  5
127
100
AcDbEntity
  8
Layer_1
 62
1
100
AcDbSpline
 70
0
 71
3
 72
10
 73
6
 74
4
 40
0.000000
 40
0.000000
 40
0.000000
 40
0.000000
 40
64.110093
 40
87.729601
 40
91.103817
 40
91.103817
 40
91.103817
 40
91.103817
 10
721.303282
 20
490.758477
 30
0.0
 10
742.673313
 20
490.758477
 30
0.0
 10
771.916513
 20
490.758477
 30
0.0
 10
802.284452
 20
490.758477
 30
0.0
 10
811.282360
 20
490.758477
 30
0.0
 10
812.407099
 20
490.758477
 30
0.0
 11
721.303282
 21
490.758477
 31
0.0
 11
785.413375
 21
490.758477
 31
0.0
 11
809.032883
 21
490.758477
 31
0.0
 11
812.407099
 21
490.758477
 31
0.0
  0
SPLINE
  5
128
100
AcDbEntity
  8
Layer_1
 62
1
100
AcDbSpline
 70
0
 71
3
 72
10
 73
6
 74
4
 40
0.000000
 40
0.000000
 40
0.000000
 40
0.000000
 40
5.625426
 40
7.697951
 40
7.994026
 40
7.994026
 40
7.994026
 40
7.994026
 10
803.557428
 20
491.751279
 30
0.0
 10
803.557428
 20
493.626420
 30
0.0
 10
803.557428
 20
496.192404
 30
0.0
 10
803.557428
 20
498.857080
 30
0.0
 10
803.557428
 20
499.646613
 30
0.0
 10
803.557428
 20
499.745305
 30
0.0
 11
803.557428
 21
491.751279
 31
0.0
 11
803.557428
 21
497.376704
 31
0.0
 11
803.557428
 21
499.449230
 31
0.0
 11
803.557428
 21
499.745305
 31
0.0
  0
SPLINE
  5
129
100
AcDbEntity
  8
Layer_1
 62
1
100
AcDbSpline
 70
0
 71
3
 72
10
 73
6
 74
4
 40
0.000000
 40
0.000000
 40
0.000000
 40
0.000000
 40
308.274467
 40
421.849271
 40
438.074243
 40
438.074243
 40
438.074243
 40
438.074243
 10
779.770131
 20
52.846873
 30
0.0
 10
779.770131
 20
155.605029
 30
0.0
 10
779.770131
 20
296.221453
 30
0.0
 10
779.770131
 20
442.246200
 30
0.0
 10
779.770131
 20
485.512792
 30
0.0
 10
779.770131
 20
490.921116
 30
0.0
 11
779.770131
 21
52.846873
 31
0.0
 11
779.770131
 21
361.121340
 31
0.0
 11
779.770131
 21
474.696144
 31
0.0
 11
779.770131
 21
490.921116
 31
0.0
  0
SPLINE
  5
12a
100
AcDbEntity
  8
Layer_1
 62
1
100
AcDbSpline
 70
0
 71
3
 72
10
 73
6
 74
4
 40
0.000000
 40
0.000000
 40
0.000000
 40
0.000000
 40
28.514679
 40
39.020087
 40
40.520860
 40
40.520860
 40
40.520860
 40
40.520860
 10
664.328570
 20
48.726175
 30
0.0
 10
664.328570
 20
39.221282
 30
0.0
 10
664.328570
 20
26.214586
 30
0.0
 10
664.328570
 20
12.707633
 30
0.0
 10
664.328570
 20
8.705572
 30
0.0
 10
664.328570
 20
8.205315
 30
0.0
 11
664.328570
 21
48.726175
 31
0.0
 11
664.328570
 21
20.211495
 31
0.0
 11
664.328570
 21
9.706087
 31
0.0
 11
664.328570
 21
8.205315
 31
0.0
  0
SPLINE
  5
12b
100
AcDbEntity
  8
Layer_1
 62
1
100
AcDbSpline
 70
0
 71
3
 72
10
 73
6
 74
4
 40
0.000000
 40
0.000000
 40
0.000000
 40
0.000000
 40
28.817228
 40
39.434101
 40
40.950797
 40
40.950797
 40
40.950797
 40
40.950797
 10
672.733458
 20
49.205868
 30
0.0
 10
672.733458
 20
39.600125
 30
0.0
 10
672.733458
 20
26.455425
 30
0.0
 10
672.733458
 20
12.805159
 30
0.0
 10
672.733458
 20
8.760636
 30
0.0
 10
672.733458
 20
8.255071
 30
0.0
 11
672.733458
 21
49.205868
 31
0.0
 11
672.733458
 21
20.388640
 31
0.0
 11
672.733458
 21
9.771767
 31
0.0
 11
672.733458
 21
8.255071
 31
0.0
  0
SPLINE
  5
12c
100
AcDbEntity
  8
Layer_1
 62
1
100
AcDbSpline
 70
0
 71
3
 72
10
 73
6
 74
4
 40
0.000000
 40
0.000000
 40
0.000000
 40
0.000000
 40
5.625428
 40
7.697954
 40
7.994029
 40
7.994029
 40
7.994029
 40
7.994029
 10
672.506693
 20
13.179256
 30
0.0
 10
670.631550
 20
13.179256
 30
0.0
 10
668.065565
 20
13.179256
 30
0.0
 10
665.400889
 20
13.179256
 30
0.0
 10
664.611355
 20
13.179256
 30
0.0
 10
664.512664
 20
13.179256
 30
0.0
 11
672.506693
 21
13.179256
 31
0.0
 11
666.881265
 21
13.179256
 31
0.0
 11
664.808739
 21
13.179256
 31
0.0
 11
664.512664
 21
13.179256
 31
0.0
  0
SPLINE
  5
12d
100
AcDbEntity
  8
Layer_1
 62
1
100
AcDbSpline
 70
0
 71
3
 72
10
 73
6
 74
4
 40
0.000000
 40
0.000000
 40
0.000000
 40
0.000000
 40
135.901828
 40
185.970923
 40
193.123651
 40
193.123651
 40
193.123651
 40
193.123651
 10
617.050732
 20
361.089417
 30
0.0
 10
662.351341
 20
361.089417
 30
0.0
 10
724.341649
 20
361.089417
 30
0.0
 10
788.716199
 20
361.089417
 30
0.0
 10
807.790140
 20
361.089417
 30
0.0
 10
810.174382
 20
361.089417
 30
0.0
 11
617.050732
 21
361.089417
 31
0.0
 11
752.952560
 21
361.089417
 31
0.0
 11
803.021654
 21
361.089417
 31
0.0
 11
810.174382
 21
361.089417
 31
0.0
  0
SPLINE
  5
12e
100
AcDbEntity
  8
Layer_1
 62
1
100
AcDbSpline
 70
0
 71
3
 72
10
 73
6
 74
4
 40
0.000000
 40
0.000000
 40
0.000000
 40
0.000000
 40
140.355452
 40
192.065355
 40
199.452484
 40
199.452484
 40
199.452484
 40
199.452484
 10
610.386223
 20
352.286288
 30
0.0
 10
657.171374
 20
352.286288
 30
0.0
 10
721.193159
 20
352.286288
 30
0.0
 10
787.677320
 20
352.286288
 30
0.0
 10
807.376331
 20
352.286288
 30
0.0
 10
809.838707
 20
352.286288
 30
0.0
 11
610.386223
 21
352.286288
 31
0.0
 11
750.741675
 21
352.286288
 31
0.0
 11
802.451578
 21
352.286288
 31
0.0
 11
809.838707
 21
352.286288
 31
0.0
  0
SPLINE
  5
12f
100
AcDbEntity
  8
Layer_1
 62
1
100
AcDbSpline
 70
0
 71
3
 72
10
 73
6
 74
4
 40
0.000000
 40
0.000000
 40
0.000000
 40
0.000000
 40
5.625428
 40
7.697954
 40
7.994029
 40
7.994029
 40
7.994029
 40
7.994029
 10
803.557428
 20
352.715311
 30
0.0
 10
803.557428
 20
354.590453
 30
0.0
 10
803.557428
 20
357.156438
 30
0.0
 10
803.557428
 20
359.821114
 30
0.0
 10
803.557428
 20
360.610648
 30
0.0
 10
803.557428
 20
360.709340
 30
0.0
 11
803.557428
 21
352.715311
 31
0.0
 11
803.557428
 21
358.340739
 31
0.0
 11
803.557428
 21
360.413265
 31
0.0
 11
803.557428
 21
360.709340
 31
0.0
  0
SPLINE
  5
130
100
AcDbEntity
  8
Layer_1
 62
1
100
AcDbSpline
 70
0
 71
3
 72
10
 73
6
 74
4
 40
0.000000
 40
0.000000
 40
0.000000
 40
0.000000
 40
338.906680
 40
463.767036
 40
481.604230
 40
481.604230
 40
481.604230
 40
481.604230
 10
190.986763
 20
36.089675
 30
0.0
 10
303.955656
 20
36.089675
 30
0.0
 10
458.544668
 20
36.089675
 30
0.0
 10
619.079411
 20
36.089675
 30
0.0
 10
666.645261
 20
36.089675
 30
0.0
 10
672.590992
 20
36.089675
 30
0.0
 11
190.986763
 21
36.089675
 31
0.0
 11
529.893443
 21
36.089675
 31
0.0
 11
654.753799
 21
36.089675
 31
0.0
 11
672.590992
 21
36.089675
 31
0.0
  0
LWPOLYLINE
  5
131
100
AcDbEntity
  8
Layer_1
 62
1
100
AcDbPolyline
 90
2
 70
0
 10
188.481157
 20
548.018674
 30
0.0
 10
142.962456
 20
548.018674
 30
0.0
  0
LWPOLYLINE
  5
132
100
AcDbEntity
  8
Layer_1
 62
1
100
AcDbPolyline
 90
2
 70
0
 10
717.074012
 20
503.771349
 30
0.0
 10
717.074012
 20
540.482460
 30
0.0
  0
LWPOLYLINE
  5
133
100
AcDbEntity
  8
Layer_1
 62
1
100
AcDbPolyline
 90
2
 70
0
 10
707.457262
 20
503.846981
 30
0.0
 10
707.457262
 20
540.426580
 30
0.0
  0
LWPOLYLINE
  5
134
100
AcDbEntity
  8
Layer_1
 62
1
100
AcDbPolyline
 90
3
 70
0
 10
676.895587
 20
539.243566
 30
0.0
 10
704.636394
 20
539.243566
 30
0.0
 10
704.636394
 20
539.243566
 30
0.0
  0
SPLINE
  5
135
100
AcDbEntity
  8
Layer_1
 62
1
100
AcDbSpline
 70
0
 71
3
 72
10
 73
6
 74
4
 40
0.000000
 40
0.000000
 40
0.000000
 40
0.000000
 40
28.514679
 40
39.020087
 40
40.520860
 40
40.520860
 40
40.520860
 40
40.520860
 10
190.689165
 20
50.141211
 30
0.0
 10
190.689165
 20
40.636318
 30
0.0
 10
190.689165
 20
27.629623
 30
0.0
 10
190.689165
 20
14.122669
 30
0.0
 10
190.689165
 20
10.120609
 30
0.0
 10
190.689165
 20
9.620352
 30
0.0
 11
190.689165
 21
50.141211
 31
0.0
 11
190.689165
 21
21.626532
 31
0.0
 11
190.689165
 21
11.121124
 31
0.0
 11
190.689165
 21
9.620352
 31
0.0
  0
SPLINE
  5
136
100
AcDbEntity
  8
Layer_1
 62
1
100
AcDbSpline
 70
0
 71
3
 72
10
 73
6
 74
4
 40
0.000000
 40
0.000000
 40
0.000000
 40
0.000000
 40
6.451786
 40
8.828760
 40
9.168328
 40
9.168328
 40
9.168328
 40
9.168328
 10
716.849618
 20
536.226348
 30
0.0
 10
714.699022
 20
536.226348
 30
0.0
 10
711.756102
 20
536.226348
 30
0.0
 10
708.699993
 20
536.226348
 30
0.0
 10
707.794479
 20
536.226348
 30
0.0
 10
707.681290
 20
536.226348
 30
0.0
 11
716.849618
 21
536.226348
 31
0.0
 11
710.397832
 21
536.226348
 31
0.0
 11
708.020858
 21
536.226348
 31
0.0
 11
707.681290
 21
536.226348
 31
0.0
  0
SPLINE
  5
137
100
AcDbEntity
  8
Layer_1
 62
1
100
AcDbSpline
 70
0
 71
3
 72
10
 73
6
 74
4
 40
0.000000
 40
0.000000
 40
0.000000
 40
0.000000
 40
5.466962
 40
7.481106
 40
7.768841
 40
7.768841
 40
7.768841
 40
7.768841
 10
701.626043
 20
547.437635
 30
0.0
 10
701.626043
 20
545.615314
 30
0.0
 10
701.626043
 20
543.121612
 30
0.0
 10
701.626043
 20
540.531998
 30
0.0
 10
701.626043
 20
539.764705
 30
0.0
 10
701.626043
 20
539.668793
 30
0.0
 11
701.626043
 21
547.437635
 31
0.0
 11
701.626043
 21
541.970672
 31
0.0
 11
701.626043
 21
539.956528
 31
0.0
 11
701.626043
 21
539.668793
 31
0.0
  0
SPLINE
  5
138
100
AcDbEntity
  8
Layer_1
 62
1
100
AcDbSpline
 70
0
 71
3
 72
10
 73
6
 74
4
 40
0.000000
 40
0.000000
 40
0.000000
 40
0.000000
 40
272.036826
 40
372.260919
 40
386.578647
 40
386.578647
 40
386.578647
 40
386.578647
 10
191.247880
 20
559.321208
 30
0.0
 10
281.926822
 20
559.321208
 30
0.0
 10
406.013796
 20
559.321208
 30
0.0
 10
534.873345
 20
559.321208
 30
0.0
 10
573.053952
 20
559.321208
 30
0.0
 10
577.826528
 20
559.321208
 30
0.0
 11
191.247880
 21
559.321208
 31
0.0
 11
463.284706
 21
559.321208
 31
0.0
 11
563.508800
 21
559.321208
 31
0.0
 11
577.826528
 21
559.321208
 31
0.0
  0
SPLINE
  5
139
100
AcDbEntity
  8
Layer_1
 62
1
100
AcDbSpline
 70
0
 71
3
 72
10
 73
6
 74
4
 40
0.000000
 40
0.000000
 40
0.000000
 40
0.000000
 40
20.127143
 40
27.542406
 40
28.601729
 40
28.601729
 40
28.601729
 40
28.601729
 10
577.701164
 20
549.517257
 30
0.0
 10
577.701164
 20
556.226304
 30
0.0
 10
577.701164
 20
565.407106
 30
0.0
 10
577.701164
 20
574.941016
 30
0.0
 10
577.701164
 20
577.765878
 30
0.0
 10
577.701164
 20
578.118986
 30
0.0
 11
577.701164
 21
549.517257
 31
0.0
 11
577.701164
 21
569.644400
 31
0.0
 11
577.701164
 21
577.059663
 31
0.0
 11
577.701164
 21
578.118986
 31
0.0
  0
SPLINE
  5
13a
100
AcDbEntity
  8
Layer_1
 62
1
100
AcDbSpline
 70
0
 71
3
 72
10
 73
6
 74
4
 40
0.000000
 40
0.000000
 40
0.000000
 40
0.000000
 40
65.277072
 40
89.326519
 40
92.762155
 40
92.762155
 40
92.762155
 40
92.762155
 10
717.402745
 20
141.215505
 30
0.0
 10
739.161769
 20
141.215505
 30
0.0
 10
768.937275
 20
141.215505
 30
0.0
 10
799.857994
 20
141.215505
 30
0.0
 10
809.019688
 20
141.215505
 30
0.0
 10
810.164900
 20
141.215505
 30
0.0
 11
717.402745
 21
141.215505
 31
0.0
 11
782.679817
 21
141.215505
 31
0.0
 11
806.729264
 21
141.215505
 31
0.0
 11
810.164900
 21
141.215505
 31
0.0
  0
LWPOLYLINE
  5
13b
100
AcDbEntity
  8
Layer_1
 62
1
100
AcDbPolyline
 90
2
 70
0
 10
676.470419
 20
547.755524
 30
0.0
 10
704.508040
 20
547.755524
 30
0.0
  0
LWPOLYLINE
  5
13c
100
AcDbEntity
  8
Layer_1
 62
1
100
AcDbPolyline
 90
2
 70
0
 10
577.467654
 20
537.036487
 30
0.0
 10
577.467654
 20
500.026982
 30
0.0
  0
LWPOLYLINE
  5
13d
100
AcDbEntity
  8
Layer_1
 62
1
100
AcDbPolyline
 90
2
 70
0
 10
577.017086
 20
539.027026
 30
0.0
 10
577.017086
 20
543.735283
 30
0.0
  0
LWPOLYLINE
  5
13e
100
AcDbEntity
  8
Layer_1
 62
1
100
AcDbPolyline
 90
2
 70
0
 10
191.287979
 20
537.923161
 30
0.0
 10
191.287979
 20
500.057491
 30
0.0
  0
SPLINE
  5
13f
100
AcDbEntity
  8
Layer_1
 62
1
100
AcDbSpline
 70
0
 71
3
 72
10
 73
6
 74
4
 40
0.000000
 40
0.000000
 40
0.000000
 40
0.000000
 40
59.044799
 40
80.798146
 40
83.905767
 40
83.905767
 40
83.905767
 40
83.905767
 10
803.557428
 20
140.035427
 30
0.0
 10
803.557428
 20
120.353827
 30
0.0
 10
803.557428
 20
93.421112
 30
0.0
 10
803.557428
 20
65.452522
 30
0.0
 10
803.557428
 20
57.165533
 30
0.0
 10
803.557428
 20
56.129659
 30
0.0
 11
803.557428
 21
140.035427
 31
0.0
 11
803.557428
 21
80.990628
 31
0.0
 11
803.557428
 21
59.237280
 31
0.0
 11
803.557428
 21
56.129659
 31
0.0
  0
LWPOLYLINE
  5
140
100
AcDbEntity
  8
Layer_1
 62
1
100
AcDbPolyline
 90
2
 70
0
 10
188.778044
 20
499.188207
 30
0.0
 10
139.551063
 20
499.188207
 30
0.0
  0
ENDSEC
  0
SECTION
  2
OBJECTS
  0
DICTIONARY
  5
C
330
0
100
AcDbDictionary
  3
ACAD_GROUP
350
D
  3
ACAD_MLINESTYLE
350
17
  0
DICTIONARY
  5
D
330
C
100
AcDbDictionary
  0
DICTIONARY
  5
1A
330
C
100
AcDbDictionary
  0
DICTIONARY
  5
17
330
C
100
AcDbDictionary
  3
STANDARD
350
18
  0
DICTIONARY
  5
19
330
C
100
AcDbDictionary
  0
ENDSEC
  0
EOF
