999
DXF created by Inkscape
  0
SECTION
  2
HEADER
  9
$ACADVER
  1
AC1014
  9
$HANDSEED
  5
FFFF
  9
$MEASUREMENT
 70
     1
  0
ENDSEC
  0
SECTION
  2
TABLES
  0
TABLE
  2
VPORT
  5
8
330
0
100
AcDbSymbolTable
 70
     4
  0
VPORT
  5
2E
330
8
100
AcDbSymbolTableRecord
100
AcDbViewportTableRecord
  2
*ACTIVE
 70
     0
 10
0.0
 20
0.0
 11
1.0
 21
1.0
 12
210.0
 22
148.5
 13
0.0
 23
0.0
 14
10.0
 24
10.0
 15
10.0
 25
10.0
 16
0.0
 26
0.0
 36
1.0
 17
0.0
 27
0.0
 37
0.0
 40
341.0
 41
1.24
 42
50.0
 43
0.0
 44
0.0
 50
0.0
 51
0.0
 71
     0
 72
   100
 73
     1
 74
     3
 75
     0
 76
     0
 77
     0
 78
     0
  0
ENDTAB
  0
TABLE
  2
LTYPE
  5
5
330
0
100
AcDbSymbolTable
 70
     1
  0
LTYPE
  5
14
330
5
100
AcDbSymbolTableRecord
100
AcDbLinetypeTableRecord
  2
BYBLOCK
 70
     0
  3

 72
    65
 73
     0
 40
0.0
  0
LTYPE
  5
15
330
5
100
AcDbSymbolTableRecord
100
AcDbLinetypeTableRecord
  2
BYLAYER
 70
     0
  3

 72
    65
 73
     0
 40
0.0
  0
LTYPE
  5
16
330
5
100
AcDbSymbolTableRecord
100
AcDbLinetypeTableRecord
  2
CONTINUOUS
 70
     0
  3
Solid line
 72
    65
 73
     0
 40
0.0
  0
ENDTAB
  0
TABLE
  2
LAYER
  5
2
100
AcDbSymbolTable
 70
2
  0
LAYER
  5
50
100
AcDbSymbolTableRecord
100
AcDbLayerTableRecord
  2
0
 70
0
  6
CONTINUOUS
  0
LAYER
  5
51
100
AcDbSymbolTableRecord
100
AcDbLayerTableRecord
  2
Layer_1
 70
0
  6
CONTINUOUS
  0
ENDTAB
  0
TABLE
  2
STYLE
  5
3
330
0
100
AcDbSymbolTable
 70
     1
  0
STYLE
  5
11
330
3
100
AcDbSymbolTableRecord
100
AcDbTextStyleTableRecord
  2
STANDARD
 70
     0
 40
0.0
 41
1.0
 50
0.0
 71
     0
 42
2.5
  3
txt
  4

  0
ENDTAB
  0
TABLE
  2
VIEW
  5
6
330
0
100
AcDbSymbolTable
 70
     0
  0
ENDTAB
  0
TABLE
  2
UCS
  5
7
330
0
100
AcDbSymbolTable
 70
     0
  0
ENDTAB
  0
TABLE
  2
APPID
  5
9
330
0
100
AcDbSymbolTable
 70
     2
  0
APPID
  5
12
330
9
100
AcDbSymbolTableRecord
100
AcDbRegAppTableRecord
  2
ACAD
 70
     0
  0
ENDTAB
  0
TABLE
  2
DIMSTYLE
  5
A
330
0
100
AcDbSymbolTable
 70
     1
  0
DIMSTYLE
105
27
330
A
100
AcDbSymbolTableRecord
100
AcDbDimStyleTableRecord
  2
ISO-25
 70
     0
  3

  4

  5

  6

  7

 40
1.0
 41
2.5
 42
0.625
 43
3.75
 44
1.25
 45
0.0
 46
0.0
 47
0.0
 48
0.0
140
2.5
141
2.5
142
0.0
143
0.03937007874016
144
1.0
145
0.0
146
1.0
147
0.625
 71
     0
 72
     0
 73
     0
 74
     0
 75
     0
 76
     0
 77
     1
 78
     8
170
     0
171
     3
172
     1
173
     0
174
     0
175
     0
176
     0
177
     0
178
     0
270
     2
271
     2
272
     2
273
     2
274
     3
340
11
275
     0
280
     0
281
     0
282
     0
283
     0
284
     8
285
     0
286
     0
287
     3
288
     0
  0
ENDTAB
  0
TABLE
  2
BLOCK_RECORD
  5
1
330
0
100
AcDbSymbolTable
 70
     1
  0
BLOCK_RECORD
  5
1F
330
1
100
AcDbSymbolTableRecord
100
AcDbBlockTableRecord
  2
*MODEL_SPACE
  0
BLOCK_RECORD
  5
1B
330
1
100
AcDbSymbolTableRecord
100
AcDbBlockTableRecord
  2
*PAPER_SPACE
  0
ENDTAB
  0
ENDSEC
  0
SECTION
  2
BLOCKS
  0
BLOCK
  5
20
330
1F
100
AcDbEntity
  8
0
100
AcDbBlockBegin
  2
*MODEL_SPACE
 70
     0
 10
0.0
 20
0.0
 30
0.0
  3
*MODEL_SPACE
  1

  0
ENDBLK
  5
21
330
1F
100
AcDbEntity
  8
0
100
AcDbBlockEnd
  0
BLOCK
  5
1C
330
1B
100
AcDbEntity
 67
     1
  8
0
100
AcDbBlockBegin
  2
*PAPER_SPACE
  1

  0
ENDBLK
  5
1D
330
1B
100
AcDbEntity
 67
     1
  8
0
100
AcDbBlockEnd
  0
ENDSEC
  0
SECTION
  2
ENTITIES
  0
LWPOLYLINE
  5
100
100
AcDbEntity
  8
Layer_1
 62
1
100
AcDbPolyline
 90
2
 70
0
 10
182.400739
 20
544.038835
 30
0.0
 10
182.400739
 20
145.572534
 30
0.0
  0
LWPOLYLINE
  5
101
100
AcDbEntity
  8
Layer_1
 62
7
100
AcDbPolyline
 90
2
 70
0
 10
655.718340
 20
543.603344
 30
0.0
 10
173.422714
 20
543.603344
 30
0.0
  0
LWPOLYLINE
  5
102
100
AcDbEntity
  8
Layer_1
 62
7
100
AcDbPolyline
 90
4
 70
0
 10
182.423570
 20
543.739084
 30
0.0
 10
182.423570
 20
547.961343
 30
0.0
 10
646.714390
 20
547.961343
 30
0.0
 10
646.714390
 20
543.739084
 30
0.0
  0
LWPOLYLINE
  5
103
100
AcDbEntity
  8
Layer_1
 62
7
100
AcDbPolyline
 90
4
 70
0
 10
655.719042
 20
543.457011
 30
0.0
 10
655.719042
 20
539.243566
 30
0.0
 10
173.418904
 20
539.243566
 30
0.0
 10
173.418904
 20
543.457011
 30
0.0
  0
LWPOLYLINE
  5
104
100
AcDbEntity
  8
Layer_1
 62
1
100
AcDbPolyline
 90
2
 70
0
 10
275.398775
 20
537.763037
 30
0.0
 10
275.398775
 20
491.160762
 30
0.0
  0
LWPOLYLINE
  5
105
100
AcDbEntity
  8
Layer_1
 62
1
100
AcDbPolyline
 90
2
 70
0
 10
275.398775
 20
543.499207
 30
0.0
 10
275.398775
 20
548.207463
 30
0.0
  0
LWPOLYLINE
  5
106
100
AcDbEntity
  8
Layer_1
 62
1
100
AcDbPolyline
 90
2
 70
0
 10
646.717734
 20
537.763048
 30
0.0
 10
646.717734
 20
499.897383
 30
0.0
  0
LWPOLYLINE
  5
107
100
AcDbEntity
  8
Layer_1
 62
7
100
AcDbPolyline
 90
6
 70
0
 10
655.718365
 20
499.330266
 30
0.0
 10
269.353180
 20
499.330266
 30
0.0
 10
173.400587
 20
140.737542
 30
0.0
 10
173.400587
 20
52.112489
 30
0.0
 10
655.718337
 20
52.112489
 30
0.0
 10
655.718365
 20
499.330266
 30
0.0
  0
LWPOLYLINE
  5
108
100
AcDbEntity
  8
Layer_1
 62
7
100
AcDbPolyline
 90
2
 70
0
 10
646.630499
 20
490.633120
 30
0.0
 10
275.398775
 20
490.633120
 30
0.0
  0
LWPOLYLINE
  5
109
100
AcDbEntity
  8
Layer_1
 62
7
100
AcDbPolyline
 90
2
 70
0
 10
275.017746
 20
490.814078
 30
0.0
 10
182.210972
 20
144.395836
 30
0.0
  0
LWPOLYLINE
  5
10a
100
AcDbEntity
  8
Layer_1
 62
7
100
AcDbPolyline
 90
2
 70
0
 10
182.400739
 20
145.290314
 30
0.0
 10
182.400739
 20
52.156981
 30
0.0
  0
LWPOLYLINE
  5
10b
100
AcDbEntity
  8
Layer_1
 62
1
100
AcDbPolyline
 90
2
 70
0
 10
139.209450
 20
140.764672
 30
0.0
 10
134.669708
 20
140.764672
 30
0.0
  0
LWPOLYLINE
  5
10c
100
AcDbEntity
  8
Layer_1
 62
1
100
AcDbPolyline
 90
2
 70
0
 10
134.908863
 20
145.189533
 30
0.0
 10
130.200606
 20
145.189533
 30
0.0
  0
LWPOLYLINE
  5
10d
100
AcDbEntity
  8
Layer_1
 62
1
100
AcDbPolyline
 90
2
 70
0
 10
180.578204
 20
145.189533
 30
0.0
 10
140.734804
 20
145.189533
 30
0.0
  0
LWPOLYLINE
  5
10e
100
AcDbEntity
  8
Layer_1
 62
1
100
AcDbPolyline
 90
2
 70
0
 10
172.330147
 20
140.764672
 30
0.0
 10
140.734804
 20
140.764672
 30
0.0
  0
LWPOLYLINE
  5
10f
100
AcDbEntity
  8
Layer_1
 62
7
100
AcDbPolyline
 90
2
 70
0
 10
134.849653
 20
52.091908
 30
0.0
 10
134.849653
 20
499.327015
 30
0.0
  0
LWPOLYLINE
  5
110
100
AcDbEntity
  8
Layer_1
 62
7
100
AcDbPolyline
 90
7
 70
0
 10
134.713912
 20
490.980476
 30
0.0
 10
130.491653
 20
490.980476
 30
0.0
 10
130.491653
 20
52.075441
 30
0.0
 10
134.995985
 20
52.091248
 30
0.0
 10
139.209430
 20
52.091248
 30
0.0
 10
139.209430
 20
499.330548
 30
0.0
 10
134.995985
 20
499.330548
 30
0.0
  0
LWPOLYLINE
  5
111
100
AcDbEntity
  8
Layer_1
 62
1
100
AcDbPolyline
 90
2
 70
0
 10
139.853227
 20
490.633120
 30
0.0
 10
266.379291
 20
490.633120
 30
0.0
  0
LWPOLYLINE
  5
112
100
AcDbEntity
  8
Layer_1
 62
7
100
AcDbPolyline
 90
2
 70
0
 10
646.718722
 20
490.633125
 30
0.0
 10
646.718722
 20
52.146567
 30
0.0
  0
LWPOLYLINE
  5
113
100
AcDbEntity
  8
Layer_1
 62
7
100
AcDbPolyline
 90
2
 70
0
 10
711.523717
 20
52.128955
 30
0.0
 10
711.523717
 20
499.364062
 30
0.0
  0
SPLINE
  5
114
100
AcDbEntity
  8
Layer_1
 62
1
100
AcDbSpline
 70
0
 71
3
 72
10
 73
6
 74
4
 40
0.000000
 40
0.000000
 40
0.000000
 40
0.000000
 40
68.284921
 40
93.442523
 40
97.036467
 40
97.036467
 40
97.036467
 40
97.036467
 10
717.776661
 20
52.135656
 30
0.0
 10
740.538301
 20
52.135656
 30
0.0
 10
771.685809
 20
52.135656
 30
0.0
 10
804.031298
 20
52.135656
 30
0.0
 10
813.615147
 20
52.135656
 30
0.0
 10
814.813128
 20
52.135656
 30
0.0
 11
717.776661
 21
52.135656
 31
0.0
 11
786.061582
 21
52.135656
 31
0.0
 11
811.219185
 21
52.135656
 31
0.0
 11
814.813128
 21
52.135656
 31
0.0
  0
LWPOLYLINE
  5
115
100
AcDbEntity
  8
Layer_1
 62
7
100
AcDbPolyline
 90
7
 70
0
 10
711.659458
 20
491.017523
 30
0.0
 10
715.881717
 20
491.017523
 30
0.0
 10
715.881717
 20
52.112489
 30
0.0
 10
711.377385
 20
52.128296
 30
0.0
 10
707.163940
 20
52.128296
 30
0.0
 10
707.163940
 20
499.367595
 30
0.0
 10
711.377385
 20
499.367595
 30
0.0
  0
SPLINE
  5
116
100
AcDbEntity
  8
Layer_1
 62
1
100
AcDbSpline
 70
0
 71
3
 72
10
 73
6
 74
4
 40
0.000000
 40
0.000000
 40
0.000000
 40
0.000000
 40
314.439994
 40
430.286308
 40
446.835781
 40
446.835781
 40
446.835781
 40
446.835781
 10
740.632569
 20
51.925121
 30
0.0
 10
740.632569
 20
156.738453
 30
0.0
 10
740.632569
 20
300.167222
 30
0.0
 10
740.632569
 20
449.112482
 30
0.0
 10
740.632569
 20
493.244411
 30
0.0
 10
740.632569
 20
498.760902
 30
0.0
 11
740.632569
 21
51.925121
 31
0.0
 11
740.632569
 21
366.365115
 31
0.0
 11
740.632569
 21
482.211429
 31
0.0
 11
740.632569
 21
498.760902
 31
0.0
  0
SPLINE
  5
117
100
AcDbEntity
  8
Layer_1
 62
1
100
AcDbSpline
 70
0
 71
3
 72
10
 73
6
 74
4
 40
0.000000
 40
0.000000
 40
0.000000
 40
0.000000
 40
63.767527
 40
87.260826
 40
90.617012
 40
90.617012
 40
90.617012
 40
90.617012
 10
721.877096
 20
499.541394
 30
0.0
 10
743.132938
 20
499.541394
 30
0.0
 10
772.219880
 20
499.541394
 30
0.0
 10
802.425551
 20
499.541394
 30
0.0
 10
811.375379
 20
499.541394
 30
0.0
 10
812.494108
 20
499.541394
 30
0.0
 11
721.877096
 21
499.541394
 31
0.0
 11
785.644623
 21
499.541394
 31
0.0
 11
809.137922
 21
499.541394
 31
0.0
 11
812.494108
 21
499.541394
 31
0.0
  0
SPLINE
  5
118
100
AcDbEntity
  8
Layer_1
 62
1
100
AcDbSpline
 70
0
 71
3
 72
10
 73
6
 74
4
 40
0.000000
 40
0.000000
 40
0.000000
 40
0.000000
 40
63.842757
 40
87.363772
 40
90.723918
 40
90.723918
 40
90.723918
 40
90.723918
 10
721.683266
 20
490.929151
 30
0.0
 10
742.964185
 20
490.929151
 30
0.0
 10
772.085442
 20
490.929151
 30
0.0
 10
802.326748
 20
490.929151
 30
0.0
 10
811.287135
 20
490.929151
 30
0.0
 10
812.407183
 20
490.929151
 30
0.0
 11
721.683266
 21
490.929151
 31
0.0
 11
785.526023
 21
490.929151
 31
0.0
 11
809.047038
 21
490.929151
 31
0.0
 11
812.407183
 21
490.929151
 31
0.0
  0
SPLINE
  5
119
100
AcDbEntity
  8
Layer_1
 62
1
100
AcDbSpline
 70
0
 71
3
 72
10
 73
6
 74
4
 40
0.000000
 40
0.000000
 40
0.000000
 40
0.000000
 40
5.625426
 40
7.697951
 40
7.994026
 40
7.994026
 40
7.994026
 40
7.994026
 10
803.557485
 20
491.357508
 30
0.0
 10
803.557485
 20
493.232650
 30
0.0
 10
803.557485
 20
495.798634
 30
0.0
 10
803.557485
 20
498.463309
 30
0.0
 10
803.557485
 20
499.252843
 30
0.0
 10
803.557485
 20
499.351534
 30
0.0
 11
803.557485
 21
491.357508
 31
0.0
 11
803.557485
 21
496.982934
 31
0.0
 11
803.557485
 21
499.055459
 31
0.0
 11
803.557485
 21
499.351534
 31
0.0
  0
SPLINE
  5
11a
100
AcDbEntity
  8
Layer_1
 62
1
100
AcDbSpline
 70
0
 71
3
 72
10
 73
6
 74
4
 40
0.000000
 40
0.000000
 40
0.000000
 40
0.000000
 40
24.541284
 40
33.582810
 40
34.874457
 40
34.874457
 40
34.874457
 40
34.874457
 10
646.975234
 20
549.584962
 30
0.0
 10
646.975234
 20
557.765390
 30
0.0
 10
646.975234
 20
568.959660
 30
0.0
 10
646.975234
 20
580.584479
 30
0.0
 10
646.975234
 20
584.028870
 30
0.0
 10
646.975234
 20
584.459419
 30
0.0
 11
646.975234
 21
549.584962
 31
0.0
 11
646.975234
 21
574.126246
 31
0.0
 11
646.975234
 21
583.167772
 31
0.0
 11
646.975234
 21
584.459419
 31
0.0
  0
SPLINE
  5
11b
100
AcDbEntity
  8
Layer_1
 62
1
100
AcDbSpline
 70
0
 71
3
 72
10
 73
6
 74
4
 40
0.000000
 40
0.000000
 40
0.000000
 40
0.000000
 40
24.731500
 40
33.843106
 40
35.144764
 40
35.144764
 40
35.144764
 40
35.144764
 10
655.279340
 20
549.286856
 30
0.0
 10
655.279340
 20
557.530690
 30
0.0
 10
655.279340
 20
568.811725
 30
0.0
 10
655.279340
 20
580.526646
 30
0.0
 10
655.279340
 20
583.997734
 30
0.0
 10
655.279340
 20
584.431620
 30
0.0
 11
655.279340
 21
549.286856
 31
0.0
 11
655.279340
 21
574.018356
 31
0.0
 11
655.279340
 21
583.129962
 31
0.0
 11
655.279340
 21
584.431620
 31
0.0
  0
LWPOLYLINE
  5
11c
100
AcDbEntity
  8
Layer_1
 62
1
100
AcDbPolyline
 90
2
 70
0
 10
657.354012
 20
490.633120
 30
0.0
 10
706.580990
 20
490.633120
 30
0.0
  0
LWPOLYLINE
  5
11d
100
AcDbEntity
  8
Layer_1
 62
1
100
AcDbPolyline
 90
2
 70
0
 10
716.270187
 20
504.034498
 30
0.0
 10
716.270187
 20
540.745607
 30
0.0
  0
LWPOLYLINE
  5
11e
100
AcDbEntity
  8
Layer_1
 62
1
100
AcDbPolyline
 90
2
 70
0
 10
711.497527
 20
504.110131
 30
0.0
 10
711.497527
 20
540.689738
 30
0.0
  0
LWPOLYLINE
  5
11f
100
AcDbEntity
  8
Layer_1
 62
1
100
AcDbPolyline
 90
3
 70
0
 10
658.004422
 20
543.785343
 30
0.0
 10
703.832569
 20
543.785343
 30
0.0
 10
703.832569
 20
543.785343
 30
0.0
  0
SPLINE
  5
120
100
AcDbEntity
  8
Layer_1
 62
1
100
AcDbSpline
 70
0
 71
3
 72
10
 73
6
 74
4
 40
0.000000
 40
0.000000
 40
0.000000
 40
0.000000
 40
5.625408
 40
7.697927
 40
7.994001
 40
7.994001
 40
7.994001
 40
7.994001
 10
655.153356
 20
579.487425
 30
0.0
 10
653.278220
 20
579.487425
 30
0.0
 10
650.712245
 20
579.487425
 30
0.0
 10
648.047578
 20
579.487425
 30
0.0
 10
647.258047
 20
579.487425
 30
0.0
 10
647.159355
 20
579.487425
 30
0.0
 11
655.153356
 21
579.487425
 31
0.0
 11
649.527948
 21
579.487425
 31
0.0
 11
647.455429
 21
579.487425
 31
0.0
 11
647.159355
 21
579.487425
 31
0.0
  0
SPLINE
  5
121
100
AcDbEntity
  8
Layer_1
 62
1
100
AcDbSpline
 70
0
 71
3
 72
10
 73
6
 74
4
 40
0.000000
 40
0.000000
 40
0.000000
 40
0.000000
 40
3.215069
 40
4.399568
 40
4.568783
 40
4.568783
 40
4.568783
 40
4.568783
 10
716.045792
 20
536.489498
 30
0.0
 10
714.974102
 20
536.489498
 30
0.0
 10
713.507580
 20
536.489498
 30
0.0
 10
711.984652
 20
536.489498
 30
0.0
 10
711.533414
 20
536.489498
 30
0.0
 10
711.477010
 20
536.489498
 30
0.0
 11
716.045792
 21
536.489498
 31
0.0
 11
712.830723
 21
536.489498
 31
0.0
 11
711.646224
 21
536.489498
 31
0.0
 11
711.477010
 21
536.489498
 31
0.0
  0
SPLINE
  5
122
100
AcDbEntity
  8
Layer_1
 62
1
100
AcDbSpline
 70
0
 71
3
 72
10
 73
6
 74
4
 40
0.000000
 40
0.000000
 40
0.000000
 40
0.000000
 40
2.726132
 40
3.730496
 40
3.873977
 40
3.873977
 40
3.873977
 40
3.873977
 10
700.822218
 20
547.700790
 30
0.0
 10
700.822218
 20
546.792079
 30
0.0
 10
700.822218
 20
545.548580
 30
0.0
 10
700.822218
 20
544.257255
 30
0.0
 10
700.822218
 20
543.874640
 30
0.0
 10
700.822218
 20
543.826813
 30
0.0
 11
700.822218
 21
547.700790
 31
0.0
 11
700.822218
 21
544.974658
 31
0.0
 11
700.822218
 21
543.970294
 31
0.0
 11
700.822218
 21
543.826813
 31
0.0
  0
SPLINE
  5
123
100
AcDbEntity
  8
Layer_1
 62
1
100
AcDbSpline
 70
0
 71
3
 72
10
 73
6
 74
4
 40
0.000000
 40
0.000000
 40
0.000000
 40
0.000000
 40
308.274467
 40
421.849271
 40
438.074243
 40
438.074243
 40
438.074243
 40
438.074243
 10
779.770187
 20
52.453103
 30
0.0
 10
779.770187
 20
155.211258
 30
0.0
 10
779.770187
 20
295.827682
 30
0.0
 10
779.770187
 20
441.852430
 30
0.0
 10
779.770187
 20
485.119022
 30
0.0
 10
779.770187
 20
490.527346
 30
0.0
 11
779.770187
 21
52.453103
 31
0.0
 11
779.770187
 21
360.727570
 31
0.0
 11
779.770187
 21
474.302374
 31
0.0
 11
779.770187
 21
490.527346
 31
0.0
  0
SPLINE
  5
124
100
AcDbEntity
  8
Layer_1
 62
1
100
AcDbSpline
 70
0
 71
3
 72
10
 73
6
 74
4
 40
0.000000
 40
0.000000
 40
0.000000
 40
0.000000
 40
67.448394
 40
92.297803
 40
95.847718
 40
95.847718
 40
95.847718
 40
95.847718
 10
127.701331
 20
52.529430
 30
0.0
 10
105.218533
 20
52.529430
 30
0.0
 10
74.452598
 20
52.529430
 30
0.0
 10
42.503359
 20
52.529430
 30
0.0
 10
33.036917
 20
52.529430
 30
0.0
 10
31.853612
 20
52.529430
 30
0.0
 11
127.701331
 21
52.529430
 31
0.0
 11
60.252936
 21
52.529430
 31
0.0
 11
35.403528
 21
52.529430
 31
0.0
 11
31.853612
 21
52.529430
 31
0.0
  0
SPLINE
  5
125
100
AcDbEntity
  8
Layer_1
 62
1
100
AcDbSpline
 70
0
 71
3
 72
10
 73
6
 74
4
 40
0.000000
 40
0.000000
 40
0.000000
 40
0.000000
 40
314.439996
 40
430.286311
 40
446.835784
 40
446.835784
 40
446.835784
 40
446.835784
 10
106.034171
 20
52.318892
 30
0.0
 10
106.034171
 20
157.132224
 30
0.0
 10
106.034171
 20
300.560994
 30
0.0
 10
106.034171
 20
449.506255
 30
0.0
 10
106.034171
 20
493.638185
 30
0.0
 10
106.034171
 20
499.154676
 30
0.0
 11
106.034171
 21
52.318892
 31
0.0
 11
106.034171
 21
366.758888
 31
0.0
 11
106.034171
 21
482.605202
 31
0.0
 11
106.034171
 21
499.154676
 31
0.0
  0
SPLINE
  5
126
100
AcDbEntity
  8
Layer_1
 62
1
100
AcDbSpline
 70
0
 71
3
 72
10
 73
6
 74
4
 40
0.000000
 40
0.000000
 40
0.000000
 40
0.000000
 40
64.893117
 40
88.801107
 40
92.216534
 40
92.216534
 40
92.216534
 40
92.216534
 10
126.386740
 20
499.650063
 30
0.0
 10
104.755701
 20
499.650063
 30
0.0
 10
75.155332
 20
499.650063
 30
0.0
 10
44.416487
 20
499.650063
 30
0.0
 10
35.308681
 20
499.650063
 30
0.0
 10
34.170205
 20
499.650063
 30
0.0
 11
126.386740
 21
499.650063
 31
0.0
 11
61.493623
 21
499.650063
 31
0.0
 11
37.585632
 21
499.650063
 31
0.0
 11
34.170205
 21
499.650063
 31
0.0
  0
SPLINE
  5
127
100
AcDbEntity
  8
Layer_1
 62
1
100
AcDbSpline
 70
0
 71
3
 72
10
 73
6
 74
4
 40
0.000000
 40
0.000000
 40
0.000000
 40
0.000000
 40
64.110093
 40
87.729601
 40
91.103817
 40
91.103817
 40
91.103817
 40
91.103817
 10
125.363402
 20
490.758477
 30
0.0
 10
103.993371
 20
490.758477
 30
0.0
 10
74.750170
 20
490.758477
 30
0.0
 10
44.382231
 20
490.758477
 30
0.0
 10
35.384323
 20
490.758477
 30
0.0
 10
34.259585
 20
490.758477
 30
0.0
 11
125.363402
 21
490.758477
 31
0.0
 11
61.253308
 21
490.758477
 31
0.0
 11
37.633800
 21
490.758477
 31
0.0
 11
34.259585
 21
490.758477
 31
0.0
  0
SPLINE
  5
128
100
AcDbEntity
  8
Layer_1
 62
1
100
AcDbSpline
 70
0
 71
3
 72
10
 73
6
 74
4
 40
0.000000
 40
0.000000
 40
0.000000
 40
0.000000
 40
5.625426
 40
7.697951
 40
7.994026
 40
7.994026
 40
7.994026
 40
7.994026
 10
43.109255
 20
491.751279
 30
0.0
 10
43.109255
 20
493.626420
 30
0.0
 10
43.109255
 20
496.192404
 30
0.0
 10
43.109255
 20
498.857080
 30
0.0
 10
43.109255
 20
499.646613
 30
0.0
 10
43.109255
 20
499.745305
 30
0.0
 11
43.109255
 21
491.751279
 31
0.0
 11
43.109255
 21
497.376704
 31
0.0
 11
43.109255
 21
499.449230
 31
0.0
 11
43.109255
 21
499.745305
 31
0.0
  0
SPLINE
  5
129
100
AcDbEntity
  8
Layer_1
 62
1
100
AcDbSpline
 70
0
 71
3
 72
10
 73
6
 74
4
 40
0.000000
 40
0.000000
 40
0.000000
 40
0.000000
 40
308.274467
 40
421.849271
 40
438.074243
 40
438.074243
 40
438.074243
 40
438.074243
 10
66.896553
 20
52.846873
 30
0.0
 10
66.896553
 20
155.605029
 30
0.0
 10
66.896553
 20
296.221453
 30
0.0
 10
66.896553
 20
442.246200
 30
0.0
 10
66.896553
 20
485.512792
 30
0.0
 10
66.896553
 20
490.921116
 30
0.0
 11
66.896553
 21
52.846873
 31
0.0
 11
66.896553
 21
361.121340
 31
0.0
 11
66.896553
 21
474.696144
 31
0.0
 11
66.896553
 21
490.921116
 31
0.0
  0
SPLINE
  5
12a
100
AcDbEntity
  8
Layer_1
 62
1
100
AcDbSpline
 70
0
 71
3
 72
10
 73
6
 74
4
 40
0.000000
 40
0.000000
 40
0.000000
 40
0.000000
 40
28.514679
 40
39.020087
 40
40.520860
 40
40.520860
 40
40.520860
 40
40.520860
 10
182.338114
 20
48.726175
 30
0.0
 10
182.338114
 20
39.221282
 30
0.0
 10
182.338114
 20
26.214586
 30
0.0
 10
182.338114
 20
12.707633
 30
0.0
 10
182.338114
 20
8.705572
 30
0.0
 10
182.338114
 20
8.205315
 30
0.0
 11
182.338114
 21
48.726175
 31
0.0
 11
182.338114
 21
20.211495
 31
0.0
 11
182.338114
 21
9.706087
 31
0.0
 11
182.338114
 21
8.205315
 31
0.0
  0
SPLINE
  5
12b
100
AcDbEntity
  8
Layer_1
 62
1
100
AcDbSpline
 70
0
 71
3
 72
10
 73
6
 74
4
 40
0.000000
 40
0.000000
 40
0.000000
 40
0.000000
 40
28.817228
 40
39.434101
 40
40.950797
 40
40.950797
 40
40.950797
 40
40.950797
 10
173.933225
 20
49.205868
 30
0.0
 10
173.933225
 20
39.600125
 30
0.0
 10
173.933225
 20
26.455425
 30
0.0
 10
173.933225
 20
12.805159
 30
0.0
 10
173.933225
 20
8.760636
 30
0.0
 10
173.933225
 20
8.255071
 30
0.0
 11
173.933225
 21
49.205868
 31
0.0
 11
173.933225
 21
20.388640
 31
0.0
 11
173.933225
 21
9.771767
 31
0.0
 11
173.933225
 21
8.255071
 31
0.0
  0
SPLINE
  5
12c
100
AcDbEntity
  8
Layer_1
 62
1
100
AcDbSpline
 70
0
 71
3
 72
10
 73
6
 74
4
 40
0.000000
 40
0.000000
 40
0.000000
 40
0.000000
 40
5.625428
 40
7.697954
 40
7.994029
 40
7.994029
 40
7.994029
 40
7.994029
 10
174.159991
 20
13.179256
 30
0.0
 10
176.035134
 20
13.179256
 30
0.0
 10
178.601118
 20
13.179256
 30
0.0
 10
181.265795
 20
13.179256
 30
0.0
 10
182.055328
 20
13.179256
 30
0.0
 10
182.154020
 20
13.179256
 30
0.0
 11
174.159991
 21
13.179256
 31
0.0
 11
179.785419
 21
13.179256
 31
0.0
 11
181.857945
 21
13.179256
 31
0.0
 11
182.154020
 21
13.179256
 31
0.0
  0
SPLINE
  5
12d
100
AcDbEntity
  8
Layer_1
 62
1
100
AcDbSpline
 70
0
 71
3
 72
10
 73
6
 74
4
 40
0.000000
 40
0.000000
 40
0.000000
 40
0.000000
 40
135.901828
 40
185.970923
 40
193.123651
 40
193.123651
 40
193.123651
 40
193.123651
 10
229.615952
 20
361.089417
 30
0.0
 10
184.315343
 20
361.089417
 30
0.0
 10
122.325035
 20
361.089417
 30
0.0
 10
57.950485
 20
361.089417
 30
0.0
 10
38.876544
 20
361.089417
 30
0.0
 10
36.492301
 20
361.089417
 30
0.0
 11
229.615952
 21
361.089417
 31
0.0
 11
93.714124
 21
361.089417
 31
0.0
 11
43.645029
 21
361.089417
 31
0.0
 11
36.492301
 21
361.089417
 31
0.0
  0
SPLINE
  5
12e
100
AcDbEntity
  8
Layer_1
 62
1
100
AcDbSpline
 70
0
 71
3
 72
10
 73
6
 74
4
 40
0.000000
 40
0.000000
 40
0.000000
 40
0.000000
 40
140.355452
 40
192.065355
 40
199.452484
 40
199.452484
 40
199.452484
 40
199.452484
 10
236.280460
 20
352.286288
 30
0.0
 10
189.495310
 20
352.286288
 30
0.0
 10
125.473525
 20
352.286288
 30
0.0
 10
58.989364
 20
352.286288
 30
0.0
 10
39.290353
 20
352.286288
 30
0.0
 10
36.827976
 20
352.286288
 30
0.0
 11
236.280460
 21
352.286288
 31
0.0
 11
95.925009
 21
352.286288
 31
0.0
 11
44.215106
 21
352.286288
 31
0.0
 11
36.827976
 21
352.286288
 31
0.0
  0
SPLINE
  5
12f
100
AcDbEntity
  8
Layer_1
 62
1
100
AcDbSpline
 70
0
 71
3
 72
10
 73
6
 74
4
 40
0.000000
 40
0.000000
 40
0.000000
 40
0.000000
 40
5.625428
 40
7.697954
 40
7.994029
 40
7.994029
 40
7.994029
 40
7.994029
 10
43.109255
 20
352.715311
 30
0.0
 10
43.109255
 20
354.590453
 30
0.0
 10
43.109255
 20
357.156438
 30
0.0
 10
43.109255
 20
359.821114
 30
0.0
 10
43.109255
 20
360.610648
 30
0.0
 10
43.109255
 20
360.709340
 30
0.0
 11
43.109255
 21
352.715311
 31
0.0
 11
43.109255
 21
358.340739
 31
0.0
 11
43.109255
 21
360.413265
 31
0.0
 11
43.109255
 21
360.709340
 31
0.0
  0
SPLINE
  5
130
100
AcDbEntity
  8
Layer_1
 62
1
100
AcDbSpline
 70
0
 71
3
 72
10
 73
6
 74
4
 40
0.000000
 40
0.000000
 40
0.000000
 40
0.000000
 40
338.906684
 40
463.767041
 40
481.604235
 40
481.604235
 40
481.604235
 40
481.604235
 10
655.679926
 20
36.089675
 30
0.0
 10
542.711032
 20
36.089675
 30
0.0
 10
388.122018
 20
36.089675
 30
0.0
 10
227.587273
 20
36.089675
 30
0.0
 10
180.021422
 20
36.089675
 30
0.0
 10
174.075691
 20
36.089675
 30
0.0
 11
655.679926
 21
36.089675
 31
0.0
 11
316.773242
 21
36.089675
 31
0.0
 11
191.912885
 21
36.089675
 31
0.0
 11
174.075691
 21
36.089675
 31
0.0
  0
LWPOLYLINE
  5
131
100
AcDbEntity
  8
Layer_1
 62
1
100
AcDbPolyline
 90
2
 70
0
 10
658.185524
 20
548.018674
 30
0.0
 10
703.704214
 20
548.018674
 30
0.0
  0
LWPOLYLINE
  5
132
100
AcDbEntity
  8
Layer_1
 62
1
100
AcDbPolyline
 90
2
 70
0
 10
129.592671
 20
503.771349
 30
0.0
 10
129.592671
 20
540.482460
 30
0.0
  0
LWPOLYLINE
  5
133
100
AcDbEntity
  8
Layer_1
 62
1
100
AcDbPolyline
 90
2
 70
0
 10
139.209430
 20
503.846981
 30
0.0
 10
139.209430
 20
540.426580
 30
0.0
  0
LWPOLYLINE
  5
134
100
AcDbEntity
  8
Layer_1
 62
1
100
AcDbPolyline
 90
3
 70
0
 10
169.771097
 20
539.243566
 30
0.0
 10
142.030289
 20
539.243566
 30
0.0
 10
142.030289
 20
539.243566
 30
0.0
  0
SPLINE
  5
135
100
AcDbEntity
  8
Layer_1
 62
1
100
AcDbSpline
 70
0
 71
3
 72
10
 73
6
 74
4
 40
0.000000
 40
0.000000
 40
0.000000
 40
0.000000
 40
28.514679
 40
39.020087
 40
40.520860
 40
40.520860
 40
40.520860
 40
40.520860
 10
655.977530
 20
50.141211
 30
0.0
 10
655.977530
 20
40.636318
 30
0.0
 10
655.977530
 20
27.629623
 30
0.0
 10
655.977530
 20
14.122669
 30
0.0
 10
655.977530
 20
10.120609
 30
0.0
 10
655.977530
 20
9.620352
 30
0.0
 11
655.977530
 21
50.141211
 31
0.0
 11
655.977530
 21
21.626532
 31
0.0
 11
655.977530
 21
11.121124
 31
0.0
 11
655.977530
 21
9.620352
 31
0.0
  0
SPLINE
  5
136
100
AcDbEntity
  8
Layer_1
 62
1
100
AcDbSpline
 70
0
 71
3
 72
10
 73
6
 74
4
 40
0.000000
 40
0.000000
 40
0.000000
 40
0.000000
 40
6.520639
 40
8.922980
 40
9.266171
 40
9.266171
 40
9.266171
 40
9.266171
 10
129.817066
 20
536.226348
 30
0.0
 10
131.990612
 20
536.226348
 30
0.0
 10
134.964939
 20
536.226348
 30
0.0
 10
138.053663
 20
536.226348
 30
0.0
 10
138.968840
 20
536.226348
 30
0.0
 10
139.083237
 20
536.226348
 30
0.0
 11
129.817066
 21
536.226348
 31
0.0
 11
136.337705
 21
536.226348
 31
0.0
 11
138.740046
 21
536.226348
 31
0.0
 11
139.083237
 21
536.226348
 31
0.0
  0
SPLINE
  5
137
100
AcDbEntity
  8
Layer_1
 62
1
100
AcDbSpline
 70
0
 71
3
 72
10
 73
6
 74
4
 40
0.000000
 40
0.000000
 40
0.000000
 40
0.000000
 40
5.672524
 40
7.762401
 40
8.060955
 40
8.060955
 40
8.060955
 40
8.060955
 10
145.040641
 20
547.437629
 30
0.0
 10
145.040641
 20
545.546788
 30
0.0
 10
145.040641
 20
542.959320
 30
0.0
 10
145.040641
 20
540.272335
 30
0.0
 10
145.040641
 20
539.476192
 30
0.0
 10
145.040641
 20
539.376674
 30
0.0
 11
145.040641
 21
547.437629
 31
0.0
 11
145.040641
 21
541.765105
 31
0.0
 11
145.040641
 21
539.675228
 31
0.0
 11
145.040641
 21
539.376674
 31
0.0
  0
SPLINE
  5
138
100
AcDbEntity
  8
Layer_1
 62
1
100
AcDbSpline
 70
0
 71
3
 72
10
 73
6
 74
4
 40
0.000000
 40
0.000000
 40
0.000000
 40
0.000000
 40
272.036834
 40
372.260930
 40
386.578658
 40
386.578658
 40
386.578658
 40
386.578658
 10
655.418814
 20
559.321208
 30
0.0
 10
564.739870
 20
559.321208
 30
0.0
 10
440.652893
 20
559.321208
 30
0.0
 10
311.793340
 20
559.321208
 30
0.0
 10
273.612732
 20
559.321208
 30
0.0
 10
268.840156
 20
559.321208
 30
0.0
 11
655.418814
 21
559.321208
 31
0.0
 11
383.381981
 21
559.321208
 31
0.0
 11
283.157884
 21
559.321208
 31
0.0
 11
268.840156
 21
559.321208
 31
0.0
  0
SPLINE
  5
139
100
AcDbEntity
  8
Layer_1
 62
1
100
AcDbSpline
 70
0
 71
3
 72
10
 73
6
 74
4
 40
0.000000
 40
0.000000
 40
0.000000
 40
0.000000
 40
20.127143
 40
27.542406
 40
28.601729
 40
28.601729
 40
28.601729
 40
28.601729
 10
268.965519
 20
549.517257
 30
0.0
 10
268.965519
 20
556.226304
 30
0.0
 10
268.965519
 20
565.407106
 30
0.0
 10
268.965519
 20
574.941016
 30
0.0
 10
268.965519
 20
577.765878
 30
0.0
 10
268.965519
 20
578.118986
 30
0.0
 11
268.965519
 21
549.517257
 31
0.0
 11
268.965519
 21
569.644400
 31
0.0
 11
268.965519
 21
577.059663
 31
0.0
 11
268.965519
 21
578.118986
 31
0.0
  0
SPLINE
  5
13a
100
AcDbEntity
  8
Layer_1
 62
1
100
AcDbSpline
 70
0
 71
3
 72
10
 73
6
 74
4
 40
0.000000
 40
0.000000
 40
0.000000
 40
0.000000
 40
65.277072
 40
89.326519
 40
92.762155
 40
92.762155
 40
92.762155
 40
92.762155
 10
129.263939
 20
141.215505
 30
0.0
 10
107.504915
 20
141.215505
 30
0.0
 10
77.729408
 20
141.215505
 30
0.0
 10
46.808690
 20
141.215505
 30
0.0
 10
37.646996
 20
141.215505
 30
0.0
 10
36.501784
 20
141.215505
 30
0.0
 11
129.263939
 21
141.215505
 31
0.0
 11
63.986867
 21
141.215505
 31
0.0
 11
39.937419
 21
141.215505
 31
0.0
 11
36.501784
 21
141.215505
 31
0.0
  0
LWPOLYLINE
  5
13b
100
AcDbEntity
  8
Layer_1
 62
1
100
AcDbPolyline
 90
2
 70
0
 10
170.196264
 20
547.755524
 30
0.0
 10
142.158644
 20
547.755524
 30
0.0
  0
LWPOLYLINE
  5
13c
100
AcDbEntity
  8
Layer_1
 62
1
100
AcDbPolyline
 90
2
 70
0
 10
269.199030
 20
537.036487
 30
0.0
 10
269.199030
 20
500.026982
 30
0.0
  0
LWPOLYLINE
  5
13d
100
AcDbEntity
  8
Layer_1
 62
1
100
AcDbPolyline
 90
2
 70
0
 10
269.649598
 20
539.027026
 30
0.0
 10
269.649598
 20
543.735283
 30
0.0
  0
LWPOLYLINE
  5
13e
100
AcDbEntity
  8
Layer_1
 62
1
100
AcDbPolyline
 90
2
 70
0
 10
655.378711
 20
537.923161
 30
0.0
 10
655.378711
 20
500.057491
 30
0.0
  0
SPLINE
  5
13f
100
AcDbEntity
  8
Layer_1
 62
1
100
AcDbSpline
 70
0
 71
3
 72
10
 73
6
 74
4
 40
0.000000
 40
0.000000
 40
0.000000
 40
0.000000
 40
59.044799
 40
80.798146
 40
83.905767
 40
83.905767
 40
83.905767
 40
83.905767
 10
43.109255
 20
140.035427
 30
0.0
 10
43.109255
 20
120.353827
 30
0.0
 10
43.109255
 20
93.421112
 30
0.0
 10
43.109255
 20
65.452522
 30
0.0
 10
43.109255
 20
57.165533
 30
0.0
 10
43.109255
 20
56.129659
 30
0.0
 11
43.109255
 21
140.035427
 31
0.0
 11
43.109255
 21
80.990628
 31
0.0
 11
43.109255
 21
59.237280
 31
0.0
 11
43.109255
 21
56.129659
 31
0.0
  0
LWPOLYLINE
  5
140
100
AcDbEntity
  8
Layer_1
 62
1
100
AcDbPolyline
 90
2
 70
0
 10
657.888626
 20
499.188207
 30
0.0
 10
707.115632
 20
499.188207
 30
0.0
  0
ENDSEC
  0
SECTION
  2
OBJECTS
  0
DICTIONARY
  5
C
330
0
100
AcDbDictionary
  3
ACAD_GROUP
350
D
  3
ACAD_MLINESTYLE
350
17
  0
DICTIONARY
  5
D
330
C
100
AcDbDictionary
  0
DICTIONARY
  5
1A
330
C
100
AcDbDictionary
  0
DICTIONARY
  5
17
330
C
100
AcDbDictionary
  3
STANDARD
350
18
  0
DICTIONARY
  5
19
330
C
100
AcDbDictionary
  0
ENDSEC
  0
EOF
