999
DXF created by Inkscape
  0
SECTION
  2
HEADER
  9
$ACADVER
  1
AC1014
  9
$HANDSEED
  5
FFFF
  9
$MEASUREMENT
 70
     1
  0
ENDSEC
  0
SECTION
  2
TABLES
  0
TABLE
  2
VPORT
  5
8
330
0
100
AcDbSymbolTable
 70
     4
  0
VPORT
  5
2E
330
8
100
AcDbSymbolTableRecord
100
AcDbViewportTableRecord
  2
*ACTIVE
 70
     0
 10
0.0
 20
0.0
 11
1.0
 21
1.0
 12
210.0
 22
148.5
 13
0.0
 23
0.0
 14
10.0
 24
10.0
 15
10.0
 25
10.0
 16
0.0
 26
0.0
 36
1.0
 17
0.0
 27
0.0
 37
0.0
 40
341.0
 41
1.24
 42
50.0
 43
0.0
 44
0.0
 50
0.0
 51
0.0
 71
     0
 72
   100
 73
     1
 74
     3
 75
     0
 76
     0
 77
     0
 78
     0
  0
ENDTAB
  0
TABLE
  2
LTYPE
  5
5
330
0
100
AcDbSymbolTable
 70
     1
  0
LTYPE
  5
14
330
5
100
AcDbSymbolTableRecord
100
AcDbLinetypeTableRecord
  2
BYBLOCK
 70
     0
  3

 72
    65
 73
     0
 40
0.0
  0
LTYPE
  5
15
330
5
100
AcDbSymbolTableRecord
100
AcDbLinetypeTableRecord
  2
BYLAYER
 70
     0
  3

 72
    65
 73
     0
 40
0.0
  0
LTYPE
  5
16
330
5
100
AcDbSymbolTableRecord
100
AcDbLinetypeTableRecord
  2
CONTINUOUS
 70
     0
  3
Solid line
 72
    65
 73
     0
 40
0.0
  0
ENDTAB
  0
TABLE
  2
LAYER
  5
2
100
AcDbSymbolTable
 70
2
  0
LAYER
  5
50
100
AcDbSymbolTableRecord
100
AcDbLayerTableRecord
  2
0
 70
0
  6
CONTINUOUS
  0
LAYER
  5
51
100
AcDbSymbolTableRecord
100
AcDbLayerTableRecord
  2
Layer_1
 70
0
  6
CONTINUOUS
  0
ENDTAB
  0
TABLE
  2
STYLE
  5
3
330
0
100
AcDbSymbolTable
 70
     1
  0
STYLE
  5
11
330
3
100
AcDbSymbolTableRecord
100
AcDbTextStyleTableRecord
  2
STANDARD
 70
     0
 40
0.0
 41
1.0
 50
0.0
 71
     0
 42
2.5
  3
txt
  4

  0
ENDTAB
  0
TABLE
  2
VIEW
  5
6
330
0
100
AcDbSymbolTable
 70
     0
  0
ENDTAB
  0
TABLE
  2
UCS
  5
7
330
0
100
AcDbSymbolTable
 70
     0
  0
ENDTAB
  0
TABLE
  2
APPID
  5
9
330
0
100
AcDbSymbolTable
 70
     2
  0
APPID
  5
12
330
9
100
AcDbSymbolTableRecord
100
AcDbRegAppTableRecord
  2
ACAD
 70
     0
  0
ENDTAB
  0
TABLE
  2
DIMSTYLE
  5
A
330
0
100
AcDbSymbolTable
 70
     1
  0
DIMSTYLE
105
27
330
A
100
AcDbSymbolTableRecord
100
AcDbDimStyleTableRecord
  2
ISO-25
 70
     0
  3

  4

  5

  6

  7

 40
1.0
 41
2.5
 42
0.625
 43
3.75
 44
1.25
 45
0.0
 46
0.0
 47
0.0
 48
0.0
140
2.5
141
2.5
142
0.0
143
0.03937007874016
144
1.0
145
0.0
146
1.0
147
0.625
 71
     0
 72
     0
 73
     0
 74
     0
 75
     0
 76
     0
 77
     1
 78
     8
170
     0
171
     3
172
     1
173
     0
174
     0
175
     0
176
     0
177
     0
178
     0
270
     2
271
     2
272
     2
273
     2
274
     3
340
11
275
     0
280
     0
281
     0
282
     0
283
     0
284
     8
285
     0
286
     0
287
     3
288
     0
  0
ENDTAB
  0
TABLE
  2
BLOCK_RECORD
  5
1
330
0
100
AcDbSymbolTable
 70
     1
  0
BLOCK_RECORD
  5
1F
330
1
100
AcDbSymbolTableRecord
100
AcDbBlockTableRecord
  2
*MODEL_SPACE
  0
BLOCK_RECORD
  5
1B
330
1
100
AcDbSymbolTableRecord
100
AcDbBlockTableRecord
  2
*PAPER_SPACE
  0
ENDTAB
  0
ENDSEC
  0
SECTION
  2
BLOCKS
  0
BLOCK
  5
20
330
1F
100
AcDbEntity
  8
0
100
AcDbBlockBegin
  2
*MODEL_SPACE
 70
     0
 10
0.0
 20
0.0
 30
0.0
  3
*MODEL_SPACE
  1

  0
ENDBLK
  5
21
330
1F
100
AcDbEntity
  8
0
100
AcDbBlockEnd
  0
BLOCK
  5
1C
330
1B
100
AcDbEntity
 67
     1
  8
0
100
AcDbBlockBegin
  2
*PAPER_SPACE
  1

  0
ENDBLK
  5
1D
330
1B
100
AcDbEntity
 67
     1
  8
0
100
AcDbBlockEnd
  0
ENDSEC
  0
SECTION
  2
ENTITIES
  0
LWPOLYLINE
  5
100
100
AcDbEntity
  8
Layer_1
 62
1
100
AcDbPolyline
 90
3
 70
0
 10
565.411987
 20
-12.483493
 30
0.0
 10
565.411987
 20
-12.202259
 30
0.0
 10
565.815170
 20
-12.202259
 30
0.0
  0
LWPOLYLINE
  5
101
100
AcDbEntity
  8
Layer_1
 62
7
100
AcDbPolyline
 90
5
 70
0
 10
56.126372
 20
438.055148
 30
0.0
 10
56.126372
 20
57.861372
 30
0.0
 10
47.408593
 20
57.861372
 30
0.0
 10
47.408593
 20
438.055148
 30
0.0
 10
56.126372
 20
438.055148
 30
0.0
  0
LWPOLYLINE
  5
102
100
AcDbEntity
  8
Layer_1
 62
7
100
AcDbPolyline
 90
5
 70
0
 10
103.905657
 20
438.055148
 30
0.0
 10
597.323432
 20
438.055148
 30
0.0
 10
597.323432
 20
57.861372
 30
0.0
 10
103.905657
 20
57.861372
 30
0.0
 10
103.905657
 20
438.055148
 30
0.0
  0
LWPOLYLINE
  5
103
100
AcDbEntity
  8
Layer_1
 62
7
100
AcDbPolyline
 90
5
 70
0
 10
597.323390
 20
484.208094
 30
0.0
 10
103.905614
 20
484.208094
 30
0.0
 10
103.905614
 20
492.925872
 30
0.0
 10
597.323390
 20
492.925872
 30
0.0
 10
597.323390
 20
484.208094
 30
0.0
  0
LWPOLYLINE
  5
104
100
AcDbEntity
  8
Layer_1
 62
7
100
AcDbPolyline
 90
3
 70
0
 10
58.762700
 20
437.948414
 30
0.0
 10
103.817460
 20
437.948414
 30
0.0
 10
103.817460
 20
438.049207
 30
0.0
  0
LWPOLYLINE
  5
105
100
AcDbEntity
  8
Layer_1
 62
7
100
AcDbPolyline
 90
3
 70
0
 10
58.107540
 20
57.200396
 30
0.0
 10
103.162300
 20
57.200396
 30
0.0
 10
103.162300
 20
57.301189
 30
0.0
  0
LWPOLYLINE
  5
106
100
AcDbEntity
  8
Layer_1
 62
7
100
AcDbPolyline
 90
3
 70
0
 10
103.565477
 20
485.371826
 30
0.0
 10
103.565477
 20
440.317066
 30
0.0
 10
103.666267
 20
440.317066
 30
0.0
  0
SPLINE
  5
107
100
AcDbEntity
  8
Layer_1
 62
1
100
AcDbSpline
 70
0
 71
3
 72
10
 73
6
 74
4
 40
0.000000
 40
0.000000
 40
0.000000
 40
0.000000
 40
267.828168
 40
366.501704
 40
380.597924
 40
380.597924
 40
380.597924
 40
380.597924
 10
34.327502
 20
57.657241
 30
0.0
 10
34.327502
 20
146.933297
 30
0.0
 10
34.327502
 20
269.100532
 30
0.0
 10
34.327502
 20
395.966506
 30
0.0
 10
34.327502
 20
433.556425
 30
0.0
 10
34.327502
 20
438.255164
 30
0.0
 11
34.327502
 21
57.657241
 31
0.0
 11
34.327502
 21
325.485409
 31
0.0
 11
34.327502
 21
424.158945
 31
0.0
 11
34.327502
 21
438.255164
 31
0.0
  0
SPLINE
  5
108
100
AcDbEntity
  8
Layer_1
 62
1
100
AcDbSpline
 70
0
 71
3
 72
10
 73
6
 74
4
 40
0.000000
 40
0.000000
 40
0.000000
 40
0.000000
 40
27.508341
 40
37.642993
 40
39.090800
 40
39.090800
 40
39.090800
 40
39.090800
 10
95.416314
 20
493.584713
 30
0.0
 10
86.246867
 20
493.584713
 30
0.0
 10
73.699202
 20
493.584713
 30
0.0
 10
60.668935
 20
493.584713
 30
0.0
 10
56.808116
 20
493.584713
 30
0.0
 10
56.325513
 20
493.584713
 30
0.0
 11
95.416314
 21
493.584713
 31
0.0
 11
67.907973
 21
493.584713
 31
0.0
 11
57.773321
 21
493.584713
 31
0.0
 11
56.325513
 21
493.584713
 31
0.0
  0
SPLINE
  5
109
100
AcDbEntity
  8
Layer_1
 62
1
100
AcDbSpline
 70
0
 71
3
 72
10
 73
6
 74
4
 40
0.000000
 40
0.000000
 40
0.000000
 40
0.000000
 40
15.969178
 40
21.852559
 40
22.693042
 40
22.693042
 40
22.693042
 40
22.693042
 10
44.810130
 20
438.204215
 30
0.0
 10
39.487070
 20
438.204215
 30
0.0
 10
32.202884
 20
438.204215
 30
0.0
 10
24.638536
 20
438.204215
 30
0.0
 10
22.397248
 20
438.204215
 30
0.0
 10
22.117087
 20
438.204215
 30
0.0
 11
44.810130
 21
438.204215
 31
0.0
 11
28.840952
 21
438.204215
 31
0.0
 11
22.957570
 21
438.204215
 31
0.0
 11
22.117087
 21
438.204215
 31
0.0
  0
SPLINE
  5
10a
100
AcDbEntity
  8
Layer_1
 62
1
100
AcDbSpline
 70
0
 71
3
 72
10
 73
6
 74
4
 40
0.000000
 40
0.000000
 40
0.000000
 40
0.000000
 40
5.625426
 40
7.697951
 40
7.994026
 40
7.994026
 40
7.994026
 40
7.994026
 10
60.907340
 20
485.804001
 30
0.0
 10
60.907340
 20
487.679143
 30
0.0
 10
60.907340
 20
490.245127
 30
0.0
 10
60.907340
 20
492.909802
 30
0.0
 10
60.907340
 20
493.699336
 30
0.0
 10
60.907340
 20
493.798027
 30
0.0
 11
60.907340
 21
485.804001
 31
0.0
 11
60.907340
 21
491.429427
 31
0.0
 11
60.907340
 21
493.501952
 31
0.0
 11
60.907340
 21
493.798027
 31
0.0
  0
SPLINE
  5
10b
100
AcDbEntity
  8
Layer_1
 62
1
100
AcDbSpline
 70
0
 71
3
 72
10
 73
6
 74
4
 40
0.000000
 40
0.000000
 40
0.000000
 40
0.000000
 40
15.969178
 40
21.852560
 40
22.693043
 40
22.693043
 40
22.693043
 40
22.693043
 10
45.213188
 20
56.847478
 30
0.0
 10
39.890129
 20
56.847478
 30
0.0
 10
32.605942
 20
56.847478
 30
0.0
 10
25.041595
 20
56.847478
 30
0.0
 10
22.800306
 20
56.847478
 30
0.0
 10
22.520145
 20
56.847478
 30
0.0
 11
45.213188
 21
56.847478
 31
0.0
 11
29.244010
 21
56.847478
 31
0.0
 11
23.360629
 21
56.847478
 31
0.0
 11
22.520145
 21
56.847478
 31
0.0
  0
SPLINE
  5
10c
100
AcDbEntity
  8
Layer_1
 62
1
100
AcDbSpline
 70
0
 71
3
 72
10
 73
6
 74
4
 40
0.000000
 40
0.000000
 40
0.000000
 40
0.000000
 40
28.375986
 40
38.830297
 40
40.323770
 40
40.323770
 40
40.323770
 40
40.323770
 10
96.307405
 20
485.825396
 30
0.0
 10
86.848743
 20
485.825396
 30
0.0
 10
73.905310
 20
485.825396
 30
0.0
 10
60.464054
 20
485.825396
 30
0.0
 10
56.481459
 20
485.825396
 30
0.0
 10
55.983635
 20
485.825396
 30
0.0
 11
96.307405
 21
485.825396
 31
0.0
 11
67.931419
 21
485.825396
 31
0.0
 11
57.477108
 21
485.825396
 31
0.0
 11
55.983635
 21
485.825396
 31
0.0
  0
SPLINE
  5
10d
100
AcDbEntity
  8
Layer_1
 62
1
100
AcDbSpline
 70
0
 71
3
 72
10
 73
6
 74
4
 40
0.000000
 40
0.000000
 40
0.000000
 40
0.000000
 40
27.508341
 40
37.642993
 40
39.090800
 40
39.090800
 40
39.090800
 40
39.090800
 10
55.793219
 20
440.751428
 30
0.0
 10
55.793219
 20
449.920875
 30
0.0
 10
55.793219
 20
462.468540
 30
0.0
 10
55.793219
 20
475.498807
 30
0.0
 10
55.793219
 20
479.359626
 30
0.0
 10
55.793219
 20
479.842229
 30
0.0
 11
55.793219
 21
440.751428
 31
0.0
 11
55.793219
 21
468.259769
 31
0.0
 11
55.793219
 21
478.394421
 31
0.0
 11
55.793219
 21
479.842229
 31
0.0
  0
SPLINE
  5
10e
100
AcDbEntity
  8
Layer_1
 62
1
100
AcDbSpline
 70
0
 71
3
 72
10
 73
6
 74
4
 40
0.000000
 40
0.000000
 40
0.000000
 40
0.000000
 40
5.625426
 40
7.697951
 40
7.994026
 40
7.994026
 40
7.994026
 40
7.994026
 10
48.012508
 20
475.260402
 30
0.0
 10
49.887650
 20
475.260402
 30
0.0
 10
52.453634
 20
475.260402
 30
0.0
 10
55.118309
 20
475.260402
 30
0.0
 10
55.907843
 20
475.260402
 30
0.0
 10
56.006534
 20
475.260402
 30
0.0
 11
48.012508
 21
475.260402
 31
0.0
 11
53.637934
 21
475.260402
 31
0.0
 11
55.710459
 21
475.260402
 31
0.0
 11
56.006534
 21
475.260402
 31
0.0
  0
SPLINE
  5
10f
100
AcDbEntity
  8
Layer_1
 62
1
100
AcDbSpline
 70
0
 71
3
 72
10
 73
6
 74
4
 40
0.000000
 40
0.000000
 40
0.000000
 40
0.000000
 40
28.375986
 40
38.830297
 40
40.323770
 40
40.323770
 40
40.323770
 40
40.323770
 10
48.033903
 20
439.860337
 30
0.0
 10
48.033903
 20
449.318999
 30
0.0
 10
48.033903
 20
462.262432
 30
0.0
 10
48.033903
 20
475.703688
 30
0.0
 10
48.033903
 20
479.686283
 30
0.0
 10
48.033903
 20
480.184107
 30
0.0
 11
48.033903
 21
439.860337
 31
0.0
 11
48.033903
 21
468.236324
 31
0.0
 11
48.033903
 21
478.690634
 31
0.0
 11
48.033903
 21
480.184107
 31
0.0
  0
SPLINE
  5
110
100
AcDbEntity
  8
Layer_1
 62
1
100
AcDbSpline
 70
0
 71
3
 72
10
 73
6
 74
4
 40
0.000000
 40
0.000000
 40
0.000000
 40
0.000000
 40
347.664172
 40
475.750972
 40
494.049087
 40
494.049087
 40
494.049087
 40
494.049087
 10
102.403648
 20
504.774598
 30
0.0
 10
218.291705
 20
504.774598
 30
0.0
 10
376.875362
 20
504.774598
 30
0.0
 10
541.558391
 20
504.774598
 30
0.0
 10
590.353363
 20
504.774598
 30
0.0
 10
596.452734
 20
504.774598
 30
0.0
 11
102.403648
 21
504.774598
 31
0.0
 11
450.067820
 21
504.774598
 31
0.0
 11
578.154620
 21
504.774598
 31
0.0
 11
596.452734
 21
504.774598
 31
0.0
  0
SPLINE
  5
111
100
AcDbEntity
  8
Layer_1
 62
1
100
AcDbSpline
 70
0
 71
3
 72
10
 73
6
 74
4
 40
0.000000
 40
0.000000
 40
0.000000
 40
0.000000
 40
9.765774
 40
13.363691
 40
13.877679
 40
13.877679
 40
13.877679
 40
13.877679
 10
102.970793
 20
497.782370
 30
0.0
 10
102.970793
 20
501.037628
 30
0.0
 10
102.970793
 20
505.492192
 30
0.0
 10
102.970793
 20
510.118085
 30
0.0
 10
102.970793
 20
511.488720
 30
0.0
 10
102.970793
 20
511.660050
 30
0.0
 11
102.970793
 21
497.782370
 31
0.0
 11
102.970793
 21
507.548145
 31
0.0
 11
102.970793
 21
511.146062
 31
0.0
 11
102.970793
 21
511.660050
 31
0.0
  0
SPLINE
  5
112
100
AcDbEntity
  8
Layer_1
 62
1
100
AcDbSpline
 70
0
 71
3
 72
10
 73
6
 74
4
 40
0.000000
 40
0.000000
 40
0.000000
 40
0.000000
 40
9.765774
 40
13.363691
 40
13.877679
 40
13.877679
 40
13.877679
 40
13.877679
 10
595.892805
 20
498.238938
 30
0.0
 10
595.892805
 20
501.494196
 30
0.0
 10
595.892805
 20
505.948760
 30
0.0
 10
595.892805
 20
510.574653
 30
0.0
 10
595.892805
 20
511.945288
 30
0.0
 10
595.892805
 20
512.116618
 30
0.0
 11
595.892805
 21
498.238938
 31
0.0
 11
595.892805
 21
508.004712
 31
0.0
 11
595.892805
 21
511.602629
 31
0.0
 11
595.892805
 21
512.116618
 31
0.0
  0
LWPOLYLINE
  5
113
100
AcDbEntity
  8
Layer_1
 62
7
100
AcDbPolyline
 90
3
 70
0
 10
596.894158
 20
482.082692
 30
0.0
 10
596.894158
 20
437.027932
 30
0.0
 10
596.994968
 20
437.027932
 30
0.0
  0
ENDSEC
  0
SECTION
  2
OBJECTS
  0
DICTIONARY
  5
C
330
0
100
AcDbDictionary
  3
ACAD_GROUP
350
D
  3
ACAD_MLINESTYLE
350
17
  0
DICTIONARY
  5
D
330
C
100
AcDbDictionary
  0
DICTIONARY
  5
1A
330
C
100
AcDbDictionary
  0
DICTIONARY
  5
17
330
C
100
AcDbDictionary
  3
STANDARD
350
18
  0
DICTIONARY
  5
19
330
C
100
AcDbDictionary
  0
ENDSEC
  0
EOF
